<svg xmlns="http://www.w3.org/2000/svg" viewBox="0 0 130.81 336.14"><defs><style>.cls-1{fill:#2f0086;}</style></defs><title>Recurso 1</title><g id="Capa_2" data-name="Capa 2"><g id="Capa_1-2" data-name="Capa 1"><path class="cls-1" d="M0,0C11.29,4.13,14.8,9.15,14.81,21.26V124.73c2.24.09,3-1.67,4-2.72C29.94,111,41,99.88,52.08,88.83c7.85-7.81,18.62-8.3,25.78-1.25s6.86,18-.92,25.79c-12.22,12.27-24.52,24.44-36.83,36.69,1.38,1.65,3,.92,4.33.92q33.74.09,67.46.05c11.09,0,19,7.29,18.91,17.44-.08,10.31-7.71,17.45-19,17.48-23.65.07-47.3,0-71,0-.3,2,1.4,2.58,2.33,3.52C55,201.44,67,213.21,78.77,225.24c10.47,10.72,6.41,26.86-7.48,30.25-7.19,1.76-13-1-18-6-11.14-11.24-22.38-22.39-33.55-33.6-1.29-1.3-2.4-2.77-3.76-4.35-1.85,2-1.14,3.88-1.15,5.53q-.06,49.47,0,98.94c0,7.17-1.55,13.59-7.95,17.83-2,1.37-4.17,2.8-6.89,2.19Z"/></g></g></svg>