<svg xmlns="http://www.w3.org/2000/svg" viewBox="0 0 127.3 336.11"><defs><style>.cls-1{fill:#2f0086;}</style></defs><title>Recurso 2</title><g id="Capa_2" data-name="Capa 2"><g id="Capa_1-2" data-name="Capa 1"><path class="cls-1" d="M127.3,336c-6.77.6-12.45-1.08-17.07-6.6a14.66,14.66,0,0,1-3.11-7.42c-.57-1.79-.29-3.63-.29-5.44,0-33.24,0-66.48-.11-99.72,0-1.55,1.7-4.12-1.5-4.86q-25.17,25-50.34,49.94c-8.27,8.22-16.56,16.43-24.72,24.76a17.84,17.84,0,0,1-25.06.58c-6.61-6.32-6.6-18.83.17-25.63q37.38-37.55,75-74.89c-.81-2.38-2.8-1.14-4.19-1.17-11.9-.29-23.82.31-35.72-.36-8.23-.33-16.27-8.67-14.83-20.42.94-7.63,8.67-14.48,18-14.58,12.13-.13,24.27,0,36.48,0a5.28,5.28,0,0,0-1.91-4c-8.23-6.65-15.19-14.61-22.61-22.08-5.89-5.93-12-11.66-17.92-17.55C30.19,99.27,22.9,92,15.74,84.67c-3.36-3.47-6.73-7-10-10.49C1.12,69.27-1.49,61.21.91,55,3.52,48.12,9.35,44.4,16.47,43.9c6.64-.46,11.38,2.49,15.73,6.84q35,35,70,69.92c1.27,1.26,2.2,3,4.1,3.49,1.12-1.68.51-3.56.51-5.33q.07-49.66,0-99.34a20,20,0,0,1,.25-5.46c2.5-11.19,6.59-14,20.22-14Z"/></g></g></svg>