<svg xmlns="http://www.w3.org/2000/svg" viewBox="0 0 35.15 36.62"><defs><style>.cls-1{fill:#fa5f16;}.cls-2{fill:#fbfbf9;}.cls-3{fill:#fbae87;}.cls-4{fill:#fbbe9e;}.cls-5{fill:#f8651f;}.cls-6{fill:#fbe7dc;}.cls-7{fill:#fcefea;}</style></defs><title>Recurso 10</title><g id="Capa_2" data-name="Capa 2"><g id="Capa_1-2" data-name="Capa 1"><path class="cls-1" d="M.31,11.5C-.94,6.93,1.64,5.1,6.58,2.85c7.64-3.47,14-4.08,21.68-.09C35,6.28,35.32,5.47,35.1,13.35c-.26,9.81-4.44,17.09-13,22-3.31,1.89-6.17,1.58-9.29-.2C4.54,30.42.42,23,.31,11.5Z"/><path class="cls-2" d="M30.59,13.12c.05,8-3.4,13.72-9.79,17.71-3.4,2.13-3.78,1.84-5.36-2-.33-.83-1.58-2.05-2.08-1.91-6.15,1.72-5.52-4.1-7.62-6.79A6.9,6.9,0,0,1,5,17.26C3.58,10,4.63,9.75,10.81,6.08c7.23-4.3,12.54.11,18.47,2.13C31.89,9.09,30.05,11.71,30.59,13.12Z"/><path class="cls-3" d="M11.72,3.07c-10,6.27-10,6.27-6.48,21.34C2.35,20.76.58,12.18,1.61,7.93,2,6.48,2.89,6.17,4,5.79Z"/><path class="cls-4" d="M30.55,6.15c1.33,0,2.55-.22,3,1.71,1,4.54-.53,12.73-3.66,17,1.56-4.51,2.78-9,2.66-13.89a5.43,5.43,0,0,0-2.06-4.7Z"/><path class="cls-4" d="M30.48,6.23c-2.8.15-4.93-1.58-7.31-2.6a11.64,11.64,0,0,1,7.38,2.52Z"/><path class="cls-5" d="M17.77,23.24c-5.55,0-7.48-2.14-5.45-7.26,1.19-3,0-8.17,5.09-8.51s4,4.8,5.24,7.56C25.24,20.61,23.49,23.26,17.77,23.24Z"/><path class="cls-6" d="M17.54,21.34c-1.89-.06-3.95.52-3.94-2.74,0-3.54,2.47-2.77,4.39-2.92,2.14-.17,3.67.21,3.61,3.12C21.53,22.2,19.28,21.14,17.54,21.34Z"/><path class="cls-7" d="M19.8,12c.05,1.47-.74,2-2.11,2s-2.29-.2-2.24-1.78c0-1.39.47-2.68,2.07-2.76S19.67,10.58,19.8,12Z"/></g></g></svg>