<svg xmlns="http://www.w3.org/2000/svg" viewBox="0 0 36.53 37.27"><defs><style>.cls-1{fill:#f9621a;}.cls-2{fill:#f9641d;}.cls-3{fill:#fbf9f6;}.cls-4{fill:#fbf6f1;}.cls-5{fill:#f9631c;}</style></defs><title>Recurso 9</title><g id="Capa_2" data-name="Capa 2"><g id="Capa_1-2" data-name="Capa 1"><path class="cls-1" d="M11.49,19.19c3.73.23,6.4.27,9,.57,4.11.48,8.05,1,10.81-3.28.91-1.4,2.7-1.29,4-.19a3,3,0,0,1,.34,4.46C31.43,26,28,32.31,19.33,30.58c-3.24-.64-6.32-.37-8,3.92-1.17,3-3.69,4-6.82.65-6.05-6.55-6.21-6.25.57-12.54C7.3,20.57,9.63,19.31,11.49,19.19Z"/><path class="cls-2" d="M20.72,16.47a8.18,8.18,0,0,1-8.1-8.24A8,8,0,0,1,20.68,0a7.94,7.94,0,0,1,8.15,8.17A8.2,8.2,0,0,1,20.72,16.47Z"/><path class="cls-3" d="M17.18,25.76c5.08.31,9,2.06,11.16-3.33.82-2,2.93-3.86,5.51-5.12-.75,5.87-6.33,11.11-11.32,11.3-3.28.12-6.53-.24-9.87.68-3.09.85-4.92-2.38-5.75-4.46s2-3.4,3.9-3.46c4.27-.15,8.55.15,12.83.37a1.91,1.91,0,0,1,1.45,1.05c.21.93-.58,1.4-1.45,1.57C21.9,24.69,20,23.86,17.18,25.76Z"/><path class="cls-3" d="M4.46,25.16c2.06,2.32,4.32,4.29,5.79,6.73.8,1.33-1.37,3.25-2.31,2.94-2.85-1-4.68-3.55-6.16-6C1,27.54,3,26.79,4.46,25.16Z"/><path class="cls-4" d="M27,8.33c-.21,3.57-2.24,6-6.11,6.15s-6.3-2.25-6.41-6.12,2.3-6.16,6.09-6.56C23.85,1.44,26.91,4.58,27,8.33Z"/><path class="cls-5" d="M20.65,13.29c-1.12-1-2.27-2-1.88-3,.9-2.17-1.3-4.92,1.34-6.58.27-.17,1.57.58,1.54.73-.51,2.53,2.19,5.13-.14,7.6A10.52,10.52,0,0,0,20.65,13.29Z"/></g></g></svg>