<svg xmlns="http://www.w3.org/2000/svg" viewBox="0 0 40.29 33.43"><defs><style>.cls-1{fill:#f9793a;}.cls-2{fill:#fbfcfa;}.cls-3{fill:#fcfcfa;}.cls-4{fill:#fa6c2a;}.cls-5{fill:#fb7d41;}.cls-6{fill:#fb844c;}.cls-7{fill:#fb8145;}.cls-8{fill:#fa5608;}.cls-9{fill:#faf6f1;}.cls-10{fill:#fbf2e7;}</style></defs><title>Recurso 12</title><g id="Capa_2" data-name="Capa 2"><g id="Capa_1-2" data-name="Capa 1"><path class="cls-1" d="M20.12,33.35c-5,0-10-.17-15,.06-4.61.22-5.6-2.11-5-7.22a60.93,60.93,0,0,0,0-14.66c-.61-5,.53-6.94,4.78-7C8.71,4.4,13.12,6.25,15.54,1c.82-1.77,9.55-.93,10,.84.85,3.42,3.2,2.67,5.39,2.72,1.83,0,3.66,0,5.49.06,2.34.06,3.83,1.19,3.85,3.62.06,7.15,0,14.29,0,21.44,0,2.72-1.52,3.76-4.17,3.71C30.76,33.29,25.44,33.35,20.12,33.35Z"/><path class="cls-2" d="M27,31.83c-6.91.32-13.85,0-20.76.18-3.48.12-4.84-1.24-4.4-5.4a68.43,68.43,0,0,0,.05-14.73c-.48-4.28.4-5.29,3.87-5.78,4.84-.67,8.87,1.79,13.34,2.32,5.34.62,9.84-3.25,15.34-2.33,3.51.59,5,1.08,4.17,6.31a41.71,41.71,0,0,0,0,13.1c.8,4.82-.33,6.68-4.25,6.48C31.84,31.85,29.41,31.72,27,31.83Z"/><path class="cls-3" d="M19.84,2.09c1.61.71,4.23-1.09,4.3,2.12.08,3-2.33,2.29-4,2.25s-4,1.06-4.1-2C15.92,1.06,18.64,2.87,19.84,2.09Z"/><path class="cls-4" d="M10.94,23.34a7.4,7.4,0,0,1-1.49,0c-1.69-.32-4.08,1-4.94-1-.71-1.69.47-3.6,2-4.71s1.12-2.43,1.07-3.94a3.17,3.17,0,0,1,3.29-3.58c2.37-.06,4.17,1.35,3.89,3.54s0,3.28,1.57,4.61a3.91,3.91,0,0,1,1.49,4c-.65,1.94-2.55.89-3.9,1.09A21.28,21.28,0,0,1,10.94,23.34Z"/><path class="cls-5" d="M4.81,26.7H35.48l0,.88H4.83Z"/><path class="cls-6" d="M22.74,11.47c4.3-1.09,8.55-1.45,12.77,0A25.12,25.12,0,0,1,22.74,11.47Z"/><path class="cls-7" d="M35.53,22a20.93,20.93,0,0,1-13-.07A26.49,26.49,0,0,1,35.53,22Z"/><path class="cls-8" d="M22.82,15.87l12.53.49V17H22.71Z"/><path class="cls-9" d="M6.29,21.22c3.23-5.15,6.11-5.21,9.63-.17C12.67,22.12,9.55,21.68,6.29,21.22Z"/><path class="cls-10" d="M9.15,13.58A1.77,1.77,0,0,1,11,11.69,1.9,1.9,0,0,1,13,13.84c0,1.36-1,1.5-2,1.47S9.13,14.85,9.15,13.58Z"/></g></g></svg>