<svg xmlns="http://www.w3.org/2000/svg" viewBox="0 0 43.08 31.13"><defs><style>.cls-1{fill:#fb7838;}.cls-2{fill:#fefbfa;}.cls-3{fill:#fafcf9;}</style></defs><title>Recurso 11</title><g id="Capa_2" data-name="Capa 2"><g id="Capa_1-2" data-name="Capa 1"><path class="cls-1" d="M30.56,31c3.21-2.88,7.29-.35,10.23-4-4.16,0-8.32-.21-12.46.06-4.46.29-.38,2.28-.55,4-8,0-16.08.1-24.13,0C.54,31-.93,27.87.63,26.23c3-3.14,1.7-6.47,1.91-9.72.26-4,.14-8,.08-12C2.58,1.45,3.75,0,7.05,0Q21.3.18,35.55,0c3.2,0,4.56,1.25,4.51,4.43-.09,4.83-.11,9.66,0,14.49.06,2.45-.57,4.78,2.13,7,2,1.62.4,4.61-2.46,5C36.73,31.33,33.63,31,30.56,31Z"/><path class="cls-2" d="M20.38,22.72c-3.74-.56-9.76,2.1-12.53-1s-.61-8.9-.77-13.52C7,6.31,7.83,5.24,9.26,3.65c2.43-2.71,2.73.17,4,.23A132.24,132.24,0,0,0,30.13,4c4.73-.35,6.18,1,6,5.88-.37,12.79-.11,12.8-13,12.84Z"/><path class="cls-2" d="M5,3.15C5,9,5.14,14.78,5,20.59c-.07,2.68.62,3.82,3.59,3.76q12.71-.29,25.42,0c2.87.05,3.74-1,3.66-3.72a166.77,166.77,0,0,1,.41-17.45c0,6.58,0,13.16,0,19.74,0,2.08-1.21,1.94-2.59,1.93-9.47,0-18.94-.05-28.41,0-1.89,0-2.6-.44-2.56-2.47.13-6.45,0-12.9,0-19.35Z"/><path class="cls-3" d="M16.49,28.31c-4.71,1-9.36,1.25-13.95-.3C7.22,27,11.89,26.48,16.49,28.31Z"/></g></g></svg>