<svg xmlns="http://www.w3.org/2000/svg" viewBox="0 0 633.41 427.81"><defs><style>.cls-1{fill:#c8888e;}.cls-2{fill:#c8888f;}.cls-3{fill:#2f0287;}.cls-4{fill:#af6d78;}.cls-5{fill:#3d75a3;}.cls-6{fill:#fe9c00;}.cls-7{fill:#783209;}.cls-8{fill:#300287;}.cls-9{fill:#f7d5c7;}.cls-10{fill:#ecc0b1;}.cls-11{fill:#300387;}.cls-12{fill:#fd9d06;}.cls-13{fill:#ce784f;}.cls-14{fill:#300487;}.cls-15{fill:#0d576b;}.cls-16{fill:#0c566a;}.cls-17{fill:#310487;}.cls-18{fill:#320688;}.cls-19{fill:#4277a5;}.cls-20{fill:#340888;}.cls-21{fill:#f3f2f7;}.cls-22{fill:#3a0f89;}.cls-23{fill:#fefefe;}.cls-24{fill:#16abd3;}.cls-25{fill:#edc0b1;}.cls-26{fill:#fcfcfc;}.cls-27{fill:#cf784f;}.cls-28{fill:#fdfefd;}.cls-29{fill:#fefdfd;}.cls-30{fill:#712107;}.cls-31{fill:#fdfefe;}.cls-32{fill:#fdfdfd;}.cls-33{fill:#e23422;}.cls-34{fill:#f7f8f9;}.cls-35{fill:#f6ad87;}.cls-36{fill:#3d74a2;}.cls-37{fill:#421c07;}.cls-38{fill:#431d07;}.cls-39{fill:#11819e;}.cls-40{fill:#112737;}.cls-41{fill:#2f1909;}.cls-42{fill:#45bcdc;}.cls-43{fill:#f9ad88;}.cls-44{fill:#d0784f;}.cls-45{fill:#d07950;}.cls-46{fill:#e23321;}.cls-47{fill:#2f0387;}.cls-48{fill:#3e1906;}.cls-49{fill:#eabcad;}.cls-50{fill:#d4e3f4;}.cls-51{fill:#d1e1f4;}.cls-52{fill:#5f2006;}.cls-53{fill:#132939;}.cls-54{fill:#a53631;}.cls-55{fill:#f6ae88;}.cls-56{fill:#f5ae8a;}.cls-57{fill:#c78f97;}.cls-58{fill:#712108;}.cls-59{fill:#165a81;}.cls-60{fill:#466575;}.cls-61{fill:#a7151a;}.cls-62{fill:#615a5a;}.cls-63{fill:#f6af8d;}.cls-64{fill:#3c6272;}.cls-65{fill:#c8928a;}.cls-66{fill:#2290a5;}.cls-67{fill:#a33637;}.cls-68{fill:#f0a885;}.cls-69{fill:#767f8e;}.cls-70{fill:#f4af8f;}.cls-71{fill:#5c6b74;}.cls-72{fill:#535e68;}.cls-73{fill:#566167;}.cls-74{fill:#0a2a3e;}.cls-75{fill:#fd9d03;}.cls-76{fill:#f7ad87;}.cls-77{fill:#e5f1fe;}.cls-78{fill:#8c431c;}.cls-79{fill:#8b431b;}.cls-80{fill:#a7151b;}.cls-81{fill:#a7141b;}.cls-82{fill:#e0adad;}.cls-83{fill:#e2b4b1;}.cls-84{fill:#f6ae87;}.cls-85{fill:#e9846c;}.cls-86{fill:#f2ae89;}.cls-87{fill:#c71f1f;}.cls-88{fill:#6f787f;}.cls-89{fill:#f5ad87;}.cls-90{fill:#3f75a2;}.cls-91{fill:#c79389;}.cls-92{fill:#fbfcfc;}.cls-93{fill:#f9fbfb;}.cls-94{fill:#366b7f;}.cls-95{fill:#7d2f0e;}.cls-96{fill:#fbfbfa;}.cls-97{fill:#faf6f7;}.cls-98{fill:#64e057;}.cls-99{fill:#7fdcdc;}.cls-100{fill:#744227;}.cls-101{fill:#582a13;}.cls-102{fill:#185d85;}.cls-103{fill:#63e255;}.cls-104{fill:#546b7a;}.cls-105{fill:#0d2b3e;}.cls-106{fill:#e4f0fb;}.cls-107{fill:#59b520;}.cls-108{fill:#59b323;}.cls-109{fill:#e3b5b2;}.cls-110{fill:#a6141a;}.cls-111{fill:#ecdcde;}.cls-112{fill:#aef385;}</style></defs><title>Recurso 7</title><g id="Capa_2" data-name="Capa 2"><g id="Capa_1-2" data-name="Capa 1"><path class="cls-1" d="M590,193.12c11.92,8.21,11.23,19.89,8.62,32a86.13,86.13,0,0,1-7.89,21.79c-1.24,2.38-.8,5.16-2.43,7.31-2.11,4.25-3.58,8.82-6.16,12.86-14.35,23.79-30.22,46.55-46.78,68.84-2.94,4-6.34,7.55-9.19,11.52,11.94-14.38,26.51-25.85,41.27-37.11,2.79-1.07,4.95-3.36,7.89-4.14,7.73-3.39,14.87-8,23-10.59,3.61-1.14,7.29-1.76,10.94-2.59a46.5,46.5,0,0,1,10.87.08c6.85,1.86,10.88,6.34,12.28,13.25a34.5,34.5,0,0,1-.07,9.89C628.6,333.65,616.72,345,603,354.71c-21.36,15-45.09,25.45-69.46,34.52-2.58-2.52-5.14-5.07-8.72-6.18-7.41-2.42-11.89-7.82-15-14.65a10.19,10.19,0,0,0-1.77-8.85c-1.31-1.84-2.72-3.82-2.37-6.36.22-10.91.22-10.91,13.71-12.52-3.82.27-6.37.79-8.95,1.08-2.9.33-4.67-.85-4.54-3.78.5-11.46-.7-22.89.32-34.4.65-7.32-.7-14.88-.56-22.35.07-3.49-.19-7,1-10.4,7-18.27,16-35.49,28.67-50.51,9.31-11,19.71-20.74,33.56-26a29.21,29.21,0,0,1,9.64-2.37,6.56,6.56,0,0,0,5.51-2.81C586.76,189.32,587.51,192.56,590,193.12Z"/><path class="cls-2" d="M10.16,232.22,0,193.18c6.12,2.87,10.5,6.52,15.26,9.54,1.78,1.13,3.32,2.85,5.73,2.65,1.94.68,3.05,2.53,4.85,3.43,11.19,9.62,21.93,19.68,30.82,31.55,1.09,1.46,2.48,2.83,3,4.52.58,1.88,2,1.46,3.16,1.79.63,1,.61,2.25,1,3.33,2.07,5.89,4.14,11.43,12,11.9,3.52.21,7.73.95,9.62,5.09a2.26,2.26,0,0,1-1,1c-2.83.89-5.12-.92-7.66-1.54-1.58-.39-3.37-1.37-4.74,0s-.09,2.83.23,4.22c.49,2.11,1,4.2,1.41,6.34,1.18,6.89.85,14.4,7.87,18.86a2.12,2.12,0,0,1-1.19,1.68c-3.9-1.4-5.13.46-5.42,4.09-.16,2,.16,4-.35,5.94-1.63,3.1-2.1,6.64-3.77,9.77-3,5.55-4.92,6.38-10.73,3.84-1.07-.46-2.11-1-3.14-1.54s-2.21-1.11-3.33-1.64c-14.69-8.19-24.07-20.65-29.26-36.48-3.48-10.6-7.14-21.14-10.3-31.85-.65-2.14-1.1-4.33-1.85-6.44A33.89,33.89,0,0,1,10.16,232.22Z"/><path class="cls-3" d="M590,193.12c-3,.55-5-.45-5.58-3.69-1.84-1.21-1.52-3.22-1.76-5-3.81-27.46-11.44-53.72-24.54-78.27-15.73-29.47-38.45-52-67.32-68.61-27.9-16-58-25.11-89.85-28.51-33.18-3.55-66.15-2.45-98.41,7.15-26.42,7.86-48.57,22.88-69,41-18.21,16.21-33.7,35.05-51.52,51.61-7.55,7-14.83,14.36-23.38,20.24a63.25,63.25,0,0,0-5.85,3.69c-3,1.84-5.85,1.94-8-1.43,7.57-5.27,14.4-11.42,21.41-17.4,11.12-9.51,20.91-20.34,31.35-30.51,7-6.79,13.17-14.44,20.29-21.15C236.33,44.92,255.49,28.47,279,18A177.53,177.53,0,0,1,333.51,3.25c7.24-.75,14.49-1.46,21.73-2.19a282.77,282.77,0,0,1,29,0c37.39,2.56,73.21,10.78,106.35,29,30.82,17,55.16,40.38,72.27,71.27,13.21,23.82,20.82,49.45,25.3,76.13C589,182.65,589.4,187.9,590,193.12Z"/><path class="cls-4" d="M85.36,267.09C81.05,264,76.09,262.9,71,262.24c-1.44-.19-3.26.34-3.87-1.46-1.68-4.9-5.91-8.93-5-14.69-1.9-2.12-1.52-4.68-1.24-7.13,2.51-22,4.23-44.05,3.9-66.21-.09-2.56.48-5.08.56-7.64,1.14-1.21,1.22-2.83,1.46-4.44,1.67.74,3.07,1.36,4.48,2a22.48,22.48,0,0,1,5,3.81c15,16.24,25.71,34.81,30.41,56.6a32.33,32.33,0,0,1,1,8.36,11.53,11.53,0,0,1-2.26,7,82,82,0,0,0-9.57,19.14,16,16,0,0,1-5.7,8c-.8.56-1.74,1.18-2.73.56-.81-.52-.58-1.48-.5-2.3.85-8.13.43-16.29.27-24.42-.08-3.8.68-6.59,3.54-9.21,2.55-2.34,4.89-4.9,7.5-6.66-3.85,2.13-6.47,6.27-10,9-1.63-.59-1.59-1.77-1.67-2.66a146.34,146.34,0,0,0-6-30.75c-1.29-4.1,3.12-6.08,2.85-9.14a7.8,7.8,0,0,1-.58,1.54c-.65,1.05-.65,2.91-2.37,2.73s-1.55-1.92-1.92-3.15c-1.39-4.59-3.13-9.07-4.45-13.69,1.38,5.34,3.55,10.45,4.94,15.79.8,3.08.38,4.26-2.93,3.07-1.53-.55-3.23-.55-3.89-.95,6.9,0,9.56,4.89,10.59,11.75,1.14,7.54,3.12,14.93,3.71,22.58.25,3.23-.73,3.46-3.27,2.64-4.22-1.36-8.32-3.19-12.86-3.35,4.89.3,9.31,2.3,13.89,3.75,1.54.49,2.58,1.29,2.68,3.12a206.56,206.56,0,0,1-.3,30.87C86.53,267.08,85.89,267.22,85.36,267.09Z"/><path class="cls-5" d="M169.09,413c-1.62,1.67-.67,3.74-.84,5.62-.25,2.67-1.42,4.44-4.23,4.35-2.53-.09-3.72-1.79-3.78-4.25s-.07-4.92-.1-7.38c-1.44-1.73-1.54-3.78-1.39-5.89-.36-8.57-.36-8.69-8.89-8.53-5.6.09-11.22-.67-16.79.33-1.63,1.19-1.34,3.52-2.82,4.8-1.82,3.57-1,7.61-2,11.33a10.72,10.72,0,0,0,0,2c-.28,5.45-2.37,8.45-5.56,7.55-5.17-1.45-3.32-5.95-3-9.1.48-5.15,1.76-10.24,1.63-15.47-.87-2.24-.43-4.48,0-6.72,2.05-19.27,4.8-38.45,6.71-57.73.3-3.06.15-6.36,2.25-9a9.24,9.24,0,0,1,9.12,0c1.75,2,1.22,4.37.91,6.66-2.09,15.83-3.95,31.69-5.93,47.53-.9,7.24-.64,7.56,6.82,7.58,3.83,0,7.65.06,11.48,0,5.43-.11,5.94-.55,6-6.1.08-16,0-31.94.05-47.91,0-2.62-.36-5.37,1.48-7.67a7.74,7.74,0,0,1,8.3,0c2,2.44,1.51,5.36,1.52,8.15.06,15.82,0,31.65.06,47.47,0,2.92-.46,6.38,4.17,6.37,3.76.58,6.59,2.93,9.48,5.1,1.11.83,2.53,1.83,1.45,3.66-2.9,1.77-6.13,1-9.23,1.1-5.72.2-6.16.6-6,6.39,0,1.32.19,2.64.21,4C169.74,409.06,170,411.1,169.09,413Z"/><path class="cls-6" d="M107.22,391.66c-1.69,3.83-1.82,8-2.51,12-.41,2.42-1.4,3.54-4.2,3.5-12.8-.18-25.6-.11-38.41-.06-2.23,0-3.26-.34-3.84-3.06-1.94-9-3.28-18.07-4.9-27.12a13.05,13.05,0,0,0-1.1-2.68c.59-2.49,2.35-3.53,4.72-3.56,16.89-.22,33.77-.43,50.65.11a5.11,5.11,0,0,1,1.89.57c2.34,1.5,1.63,3.77,1.4,5.86a78.64,78.64,0,0,1-1.49,8.36C108.57,387.57,109,390,107.22,391.66Z"/><path class="cls-7" d="M144.82,131.37c3.12,1.6,6,2.33,8.78-.94,1.07-1.25,3.2-1.6,4.85-2.36,18.61-5.47,33.84,8.25,31,28a28.48,28.48,0,0,1-1.13,4.83,9.87,9.87,0,0,1-1.63,3.05c-.52.64-1.06,1.43-2,1.27a2,2,0,0,1-1.58-2.24c.52-6-3.24-6.32-7.81-6.63-6-.41-11.84-1.85-16.88-5.41-2.62-1.84-4.14-1.12-5.33,1.62a41.77,41.77,0,0,1-3.26,5.59c-4.42,6.91-10,8.12-17.33,3.78-1.87-5.72-.45-11.34.51-17,1-3.15,1.88-6.37,4.71-8.51Z"/><path class="cls-3" d="M117,54.27c3.09-20.63,19.34-34.58,39.58-33.68,24.21,1.08,38.4,18.81,38.46,39.24.06,20.9-15.34,35.2-32.42,38.51-25.32,4.91-44.28-15.64-45.62-33.1A44.25,44.25,0,0,1,117,54.27Z"/><path class="cls-8" d="M293.24,427.47l-17.76-.31c-3.35-1.07-6.87.16-10.24-.7-11.09-.74-22.23-1-33.26-2.36-7.87-1-15.75-2-23.64-3-2.3-3.43-1.08-5.35,2.64-6.22,6.51-.55,12.81,1.12,19.21,1.76,7.73.77,15.48,1.37,23.14,2.74,1.11.33,2.16,1,3.34,1,13.8-.29,27.56,2.52,41.39.61a37.83,37.83,0,0,1,8.24-.19c12.22-1,24.38.94,36.59.84,2.83,0,5.63,0,8-1.92a79.73,79.73,0,0,1,19.41-2,19,19,0,0,0,13.21-1.54c13.6-2.25,27.2-4.48,40.7-7.3,4.37-.91,8.59-2.69,13.16-2.57,2.3.59,2.39,1.77.91,3.38-2.1,1.45-3.3,4.43-6.58,3.89-15.61,4.19-31.57,6.38-47.52,8.79-17.1,2.58-34.38,3.09-51.56,4.77-6.09.6-12.28.3-18.42.4A168.49,168.49,0,0,1,293.24,427.47Z"/><path class="cls-9" d="M110.21,372.27c-18-.06-35.94-.08-53.92-.22a4.23,4.23,0,0,0-4,2.21c.11-5.19-2.25-10.08-1.83-15.31,1.66-1.42,3.71-1.31,5.68-1.35,17.44-.36,34.89.61,52.32-.61a9,9,0,0,1,4.38.76A13.5,13.5,0,0,1,110.21,372.27Z"/><path class="cls-10" d="M502.19,407.37c-2.83-1-7.23,2-8.47-3.33-.2-.87-1.43-.23-2.17,0-2,.67-4.11,1.22-6.09,2-3,1.22-4.55.83-4.31-2.92.1-1.48.93-4.65-2.79-3-3.37-.89-6.86,1.81-10.19-.34-3-2.88-1.74-5.87-.23-8.87,3.08-1.51,3.85-4.07,3.78-7.36-.11-5.77-2.1-11.49-.47-17.3,2.05-2.85,3.05-.26,3.88,1,3.25,4.8,5.79,10,8.9,14.93,2.79,4.39,3,4.43,6.94.93,1.61-1.43,3.11-3.05,5.59-2.68,4.1,1.8,6.65,5.33,9.48,8.52a4.36,4.36,0,0,1,.94,4.21c-1.39,4.57-1.8,9.44-4.15,13.71Z"/><path class="cls-11" d="M10.16,232.22a35.74,35.74,0,0,1,3.14,11.09c.52,2.15-.17,4.36.33,6.52-1.76,15-1.22,29.88,3.35,44.42.75,2.71,1.66,5.37,2.53,8,1.35,4,3.58,7.63,5.4,11.43.52,1,1,2.06,1.59,3.07,5.52,10,13.13,18.49,20.65,27,2.23,2.31,2.62,5.28,2.93,8.27a2.43,2.43,0,0,1-1,2c-14.36-11.24-24.84-25.73-32.67-41.86A98.86,98.86,0,0,1,6.36,275C5.45,260.5,6.11,246.24,10.16,232.22Z"/><path class="cls-12" d="M49.12,354.05l.18-1.93c1.58-1.57,3.63-1.56,5.61-1.57,17.47-.08,35-.11,52.42,0,2.92,0,6.26-.19,7.07,3.91a3.83,3.83,0,0,1-1.31,3.62c-3.88,1.11-7.87.74-11.8.77-17,.12-33.91.07-50.86.08C48.58,357.7,49.66,355.66,49.12,354.05Z"/><path class="cls-13" d="M468.17,391.43c.69,2.56-1.46,5.13,0,7.69.87,1.15,2.57,1.66,2.61,3.44a1.89,1.89,0,0,0,.11,2.34c-.88,1.83-2.63,2.42-4.35,3-7.51,2.6-15,5.38-23.15,4.8-2.56-.18-5.47,0-6.38-3.37l1.76-2.27c-1.18-1.74.66-1.9,1.4-2.45,2.66-1.95,5.78-3.27,8-5.87,1.09-2.34,0-5.43,2.56-7.26a38.73,38.73,0,0,1,12.59-1.8C465.06,389.71,466.93,389.75,468.17,391.43Z"/><path class="cls-14" d="M137.74,136.4l-3,7.8c-6.93,5.16-15.27,7.18-23.14,10.11-10.74,4-21.6,7.66-32.24,11.91-1.4.56-2.8,1.12-4.28.22-1.93-.61-3.51-1.58-3.85-3.8,9.64-5.27,20.18-8.35,30.45-12C113.91,146.37,125.88,141.56,137.74,136.4Z"/><path class="cls-15" d="M437,409.35c4.35,3.14,9.22,2,13.91,1.43,6.94-.89,13.35-3.77,20-5.88,4.31,10.77,3.95,11.11-8.65,12.52-7.7.86-15.37.6-23,.53-2.34,0-8,1.85-7.53-4.41Z"/><path class="cls-14" d="M65.31,165.11c2.14,1.95,1.62,4,.17,6-.78,2.27-2.87,3.14-4.69,4.18-13.59,7.76-24.93,17.88-33.2,31.27-.67,1.09-1.22,2.41-2.79,2.57-1.95-.58-3.59-1.48-3.81-3.79,5.56-10.91,13.58-19.69,23.22-27.15A132.83,132.83,0,0,1,65.31,165.11Z"/><path class="cls-16" d="M525.15,381.93c3.47,1.65,7.84,2.26,8.35,7.3a113.27,113.27,0,0,1-25.27,23.49c-1.87,1.3-4.17,4.1-6.11,2.38s-1.34-5.13.07-7.73l.33-.25c8.65-4.89,14.11-12.62,18.83-21C522.27,384.44,522.69,382.22,525.15,381.93Z"/><path class="cls-17" d="M581.09,266.34c2.77-3.84,3.42-8.93,7.23-12.14-2.05,17.89-7,35.07-13,52a13.85,13.85,0,0,1-7.55,5.12c-.83-1.67-.22-3.28.4-4.79C573.63,293.48,576.29,279.57,581.09,266.34Z"/><path class="cls-18" d="M160.16,405.28q0,3,0,6L130.25,402c.29-2-.87-4.22,1.14-5.86A93.83,93.83,0,0,1,160.16,405.28Z"/><path class="cls-18" d="M169.09,413c-.79-1.72-1.46-3.43.28-5a4.21,4.21,0,0,1,3.79-.64c7.73,2,15.75,2.56,23.41,4.87,3.22,1.28,6.52,2.54,3.59,7A204.14,204.14,0,0,1,169.09,413Z"/><path class="cls-19" d="M200.16,419.16c.84-3.3-.9-4.9-3.78-5.74,2.53-3.49,0-7.73,1.66-11.35,3.75-1.12,6.54,1,9.43,2.77,1.66,3.56,2,7.57,3.73,11.12-3.78.13-2.74,3-2.86,5.12C203.74,424.15,202.58,423.87,200.16,419.16Z"/><path class="cls-20" d="M107.22,391.66c0-1.84-.18-3.7.94-5.34a21.56,21.56,0,0,1,14,6.1c.15,2,.22,4.05-.94,5.87C116.76,395.68,111.52,394.67,107.22,391.66Z"/><path class="cls-21" d="M384.21,1.07h-29A99,99,0,0,1,384.21,1.07Z"/><path class="cls-22" d="M470.78,402.56c-1.82-.43-2.5-1.71-2.61-3.44,3.38.51,7-1.38,10.19,1.08C475.61,400.27,473.59,402.69,470.78,402.56Z"/><path class="cls-21" d="M117,54.27v11A15.26,15.26,0,0,1,117,54.27Z"/><path class="cls-21" d="M620.17,293.07,609.3,293A15.87,15.87,0,0,1,620.17,293.07Z"/><path class="cls-21" d="M632.38,316.21c0-3.3,0-6.59.07-9.89A12.8,12.8,0,0,1,632.38,316.21Z"/><path class="cls-23" d="M187.21,161.26c.46-4.77,1.47-9.51.79-14.32-1.66-11.81-11.73-19.41-25.1-19l-4.45.13c23.61-19.41,43.77-42.35,65.5-63.69,24.32-23.89,51.58-42.9,85.16-51.51,25.9-6.64,52.24-8.13,78.76-6.45,32,2,62.72,9.34,91.64,23.5C532.1,55.65,563.81,98,578.18,154.1a209.4,209.4,0,0,1,6.25,35.32c-.25,1.76,0,3.53-2.86,3.62-13,.4-23.31,7.14-32.67,15.28-18.48,16.08-30.19,36.8-39.58,59-.39.91-.81,1.8-1.22,2.71-3.34-.94-2.06-3.56-1.94-5.64.1-1.67,1.2-3,2.1-4.43,2-3,1.54-6.38,1.28-9.63-.43-5.41-4.9-2.93-7.71-3.62-1.28-.31-2.63-.32-3.65-1.31,1.76-4.78,1.25-9.62.61-14.54-.91-7-.86-14.14-1.68-21.18,0-4.86,1.67-9.3,3.47-13.71,4.89-12.61,9.54-25.26,5.74-39.15a7.42,7.42,0,0,1-.47-3.42c.6-1.28,1.82-1.9,2.86-2.71,7.13-5.56,9.56-12.14,5.65-20.21-5-10.24-5.25-20.33-2.45-31,1.34-5.12,2-10.41.65-15.79-1.48-5.91-5.09-9.79-10.78-11.33-5.9-1.6-11.77-1.22-15.92,4.06C483,80,480.31,80.55,476.53,78c-3.2-2.15-6.83-2.22-10.57-1.33a24.16,24.16,0,0,0-17.88,27.85c.38,2.11,1.23,4.16,1,6.37-.27,2.84-4.65,3.76-3.49,7.21,1,3.09,4.35,3.29,6.62,4.84,1.41,1,2.07,2.55,2.93,4a20.62,20.62,0,0,0,7.68,7.58c4.14,2.32,4.41,3.76,2.17,8.46a15.79,15.79,0,0,1-4.63,2.52c-6,2.22-12.67,2.42-18.33,5.77-4,2.64-5.87,6.6-7.16,11-.92,3.15-1.22,6.56-3.55,9.17-2.18.14-2.63-1.64-3.27-3.09a52.71,52.71,0,0,1-3.61-9.15c-1.12-4.69-3.58-6.12-8-4.64-4-.54-8-1-11.09,2.43-7.25,3.43-6.94,3.34-4.87,11.42,3.78,14.82,10.92,28.32,16.15,42.57.63,1.7,1.66,3.27,1.32,5.21-.72,2.18-2.57,2.43-4.44,2.45-4.16,0-8.38.57-12.46-.29-3-.64-3.37.54-3.39,3-.05,6,.36,12-.23,18-.31,1.61-1.24,3.24-.71,4.85,2.39,7.26-1.68,12-6.85,15.47-4.18,2.82-4.83,5.73-3.16,9.9,3.25,11,4.85,22.19,5.95,33.52,0,.86.15,1.71.08,2.57a111.13,111.13,0,0,1,2.09,23.17c-.16,9.1-.29,9.43-8.83,12.4-4.89,1.22-9.53,3.24-14.4,4.56-4.71.38-5.7-.27-5.93-4.77a135.88,135.88,0,0,1,0-15.37c-.33-4.57.23-9.18-.47-13.74a265.56,265.56,0,0,0-3-27.53c-.7-4.05-2.12-6.09-6.43-4.57-3.52-.87-4.53-4.19-6.3-6.69a60.19,60.19,0,0,1-5.66-8.8c-1.12-3.27,1.17-4.64,3.48-5.63,4.65-2,5.64-5.24,4.84-10-.87-5.21-1.93-10.47-1.34-15.83.72-4.3,3.67-7.4,6-10.79,1.85-2.72,2.42-4.82-.39-7.3-2.53-2.24-1.84-4.62,1.09-5.85,3.91-1.64,5.3-4.59,5.81-8.52.44-3.44.86-7,2.58-10.1,2-3.54,1.09-5.53-2.53-6.84-1.37-.49-2.86-1-3.71-2.36a105.29,105.29,0,0,1,3.42-17.32c3.73-4.78,3.73-4.78-.74-9.94-1.37-7.15.78-14.18.72-21.31,0-6-.67-5.89-6-9-4.83-2.81-10.53-1.48-14.93-4.72a2.64,2.64,0,0,0-2.42-.31c-6.26,2.66-13.16,2.86-19.51,5.08-2.78,1-2.57,3.61-2.39,5.95.57,7.1,1.27,14.2,1.69,21.31a5.89,5.89,0,0,1-1.64,4c-4.59,4.6-4.57,4.62-.65,9.31,2,5,1.78,10.51,3.83,15.47.87,2.59,1.93,5.12,2.84,7.7a6,6,0,0,1,.11,1.46c-1.05,4.72-3.19,9.08-4.63,13.68-.68,2.17-2,3.33-3.69.92a19.64,19.64,0,0,1,.54,9.92c-.18,1-.58,2.14-1.81,2a1.49,1.49,0,0,1-1.13-1.38c5.06,6.65,1.58,14.54,2,22.11a8.84,8.84,0,0,1-2.3,3.88,16.14,16.14,0,0,1-4.9,3.7c-5.36,2.58-10.76,5-16.69,6.07-1.75.3-3.51,1.15-5.29.06-2.62-6-7.27-8.94-13.74-9.19a3.52,3.52,0,0,1-2.2-1c-.22-.47-.32-1,.1-1.34,11.13-8.09,15.4-19.55,16.14-32.76,1.54-2.69,4.17-4.47,5.58-7.41,1.92-4,2.34-7.77.15-11.7-1.81-3.37-4.88-5.18-8.25-6.63-2.61-3.25-5.41-1-7.94,0s-4.64,2.18-4.54,5.64c.14,5.35,1.36,10.2,5.22,14,2.9,2.84,5,6.61,9,8.23.4,12.11-4.82,21.63-13.73,29.32-1.6,1.37-3,3.05-4.95,4.05a7.64,7.64,0,0,1-1.46.65c-8.6,3.78-17.77,5-27,6.15-5.8,0-11.59.05-17.39,0-3.44.14-5-1.84-5.82-4.93-1.37-5.32-3.17-10.48-6.7-14.83a10,10,0,0,1-1.61-5.07,12.78,12.78,0,0,0-4.36-12.13c-2.37-4.35-6.76-7.51-7.59-12.77,5.29-6.35,4.56-9.64-2.83-12.71-6.1-2.53-7.55-5.1-7.08-12.54a2.48,2.48,0,0,1,.6-1.32C189.6,168.45,189.85,165.07,187.21,161.26Z"/><path class="cls-24" d="M496,381c-2.62,1.25-4.48,3.46-6.39,5.49-2.41,2.56-3.77,1.65-5.24-.86-3.95-6.71-8-13.37-12-20a3.81,3.81,0,0,1-1.87-1.58c-8.17-13.29-14.94-27-14.84-43.21s-.1-32.59.1-48.88c.06-4.66-1.39-8-5.39-10.34s-7.68-5.82-11.32-9c-2.11-1.82-4.36-3.73-4.16-7,1.63-2,3.61-1.1,5.46-.53,2.53.79,5.45,1.31,7.38,2.86,4,3.24,8.37-3.12,11.28.26,3.72,4.33,7.35,1.66,10.92,1,5.22-.89,10.4-2.13,15.54-3.5,1.6-.43,3.22-.82,4.84-1.18,6.89-1.54,6.93-1.51,9,5.23,1.46,12.18-.45,24.18-2.23,36.15-1.44,9.68-2.61,19.4-4.08,29.09a24.51,24.51,0,0,0,2.47,15.46c2.87,5.43,5.29,11.09,8.51,16.33a18,18,0,0,1,2.57,7.47c1.36,2.4,2.56,4.91,4.13,7.18,1.73,2.51,1.94,4.68-.46,6.8C506.74,373.85,501.69,377.76,496,381Z"/><path class="cls-25" d="M506.6,354.25c-3.77-6.86-7.26-13.88-11.36-20.52-5.48-8.88-3.89-18.13-2.63-27.58,2.07-15.47,5.25-30.82,5.81-46.47.12-3.48-.23-7-.36-10.47-.39-1.36-.68-2.72.22-4a32.39,32.39,0,0,1,4,.13c2.94.47,7.27-1.74,8.58,1.38a16.69,16.69,0,0,1,0,12.54c-1.28,2.82-4,5-3.46,8.59a12.35,12.35,0,0,0,.79,2.23c-1.12,10.54-2,21.11.43,31.58.58,2.54-1.61,4-1.48,6.58.49,9.54.34,19.12.14,28.67-.08,4,1.34,4.9,5.06,4a17.92,17.92,0,0,1,11.38.49c-4.32-1-8.38,1.21-12.6.87-3.23-.26-3.87,1.37-3.85,4.2C507.21,349,507.9,351.72,506.6,354.25Z"/><path class="cls-26" d="M581.09,266.34c-1.89,13.83-6.37,26.92-11.26,39.9-.64,1.7-1.35,3.37-2,5.05-8.45,7.49-17.83,13.85-26,21.7-6.06,5.82-12.25,11.5-18.17,17.56C543.47,322.9,563.69,295.58,581.09,266.34Z"/><path class="cls-27" d="M496,381c4.29-4.76,9.36-8.66,14.27-12.72A8.35,8.35,0,0,1,512,370c3,5.54,7,10,13.14,12-4.64,7.93-8.7,16.27-16.07,22.22-1.93,1.56-3.86,3.1-6.56,3-.11-4.34,1.45-8.34,2.81-12.3,1-2.95.59-4.89-1.77-6.84C500.91,385.8,498.51,383.32,496,381Z"/><path class="cls-2" d="M85.36,267.09c1.78-7.69.68-15.5.82-23.24.19-10.17,0-10.25-9.79-13-3.39-.93-6.9-1.4-10.28-2.47,6.84-1.21,13,1.7,19.52,3.71-.4-10.33-2.62-19.95-4.77-29.59-.83-3.74-3.52-5-6.54-6-1.68-.59-3.45-.91-6.32-1.65,4.33-1.3,7,.8,10.45.93C77.62,188,73.39,181,73.23,173L80.33,194c2.5-2.91,2.38-6.89,5.49-9.36.12.93.4,1.56.2,1.82-6,7.61-3.94,15.7-1.86,24a111,111,0,0,1,3.39,21.76c4.71-5.08,9-9.46,14.51-12.51,1.19,2-.42,2.19-1.23,2.79a78.15,78.15,0,0,0-10.49,9.17,7.6,7.6,0,0,0-2.28,6.14c.33,9.1.64,18.24-.37,27.68,2.91-1.69,5.21-3.83,6.31-7,2.69-7.71,5.78-15.18,10.87-21.67,1.3-1.66,1.38-3.7,1.45-5.71,4.62-4.59,7.9-10.33,12.66-14.77,1.38-1.3,3.13-4.39,5.36-.62.92,9.29.33,18.63,1.47,27.91,1.65,13.36,2.7,26.81,5.22,40.06a13.16,13.16,0,0,1,.32,6.65c-4.69,10.41-13.57,16.41-23.09,21.65A44.6,44.6,0,0,1,101,315.1c-4.89,1.63-6,1.1-7.89-3.62-.37-.89-.46-2-1.85-2.82-2,2-3.14,4.82-5.18,6.87-2.3,2.32-4.47,3.08-5.94-.84-.29-5.8,1.35-11.59.13-17.4l1.08-1.07c1.41-9.54,2.18-19.15,2.74-28.78Z"/><path class="cls-28" d="M81.22,315.27c1.11,2.91,2.33,1.44,3.39,0,2.41-3.26,4.75-6.58,7.17-9.95,1.75,1.57,2,3.54,2.29,5.19.79,4.79,3.36,4.58,7,3.25a60.73,60.73,0,0,0,29-22.37c2.89,4.46,5.76,8.93,7.12,14.16-1.4,1.13-3.11,1-4.75,1.11-3.18.13-6,1-7.14,4.31s-1,6.85,1.33,9.91c1.2,1.55,3.28,2.34,3.83,4.45q-3.7,32.4-7.44,64.81a10.5,10.5,0,0,1-.82,2.27l-14-6.1q1-7,2-14.05c2.2-4.47,1.79-9.47,2.88-14.17l.33-2.86c-.7-5.68,1.06-11.14,1.45-16.71,0-3.37,2.32-6.65.33-10.07-1.83-1.22-3.89-.71-5.84-.75-10.28-.23-20.57.38-30.83-.33-3.85-1.86-1.54-4.1.11-6.86-3.23,1.75-2.45,5.73-5.4,6.75-6.57.9-13.18.18-19.76.43-2,.07-4-.35-5.84.5-2.29,3.39.63,6.76,0,10.13-.3,2,2,4.6-1.31,5.93a112.38,112.38,0,0,1-20.84-27,5.56,5.56,0,0,1,6.87-2.49c2.59.82,3.47,2.87,3.22,5.49-.21,2.24,1.18,2.88,3.08,2.92a34.93,34.93,0,0,0,4-.24c1.77-.16,4.14.14,4.42-2.22s-2.24-1.86-3.62-2.46c-.77-.34-1.83-.53-2.1-1.23-2.38-6-10-8.36-10.75-15.5a2.74,2.74,0,0,0-1.33-1.82c-2.85,2.21-3.56,4.88-2.58,8.48,1.19,4.35.78,4.86-2.67,6.16a38.56,38.56,0,0,1-5.35-11.16c1.78-3.5,0-5.82-2.6-7.87-5.34-15-6.08-30.41-3.71-46.06a1.89,1.89,0,0,1,2.77,0C18.5,259.49,22,269.68,25.23,280c5,16.08,14.56,28.56,29,37.28.65,1.15,1.34,2.21,2.92,1.34.31.09.64.15.94.27,9.38,3.88,11.39,2.7,13.59-7.42.29-1.35-.48-4,2.47-4C77.5,309.14,79.34,312.22,81.22,315.27Z"/><path class="cls-23" d="M24.8,209.16c9.25-17.28,23.65-29.06,40.68-38,1.68.44,1.1,1.75,1.09,2.84a550.58,550.58,0,0,1-4,63.65c-.33,2.8-.32,5.64-.47,8.46-1.56,3.45-2.41.92-3.31-.43-7.06-10.48-15.71-19.55-24.9-28.15C30.88,214.7,27.25,212.57,24.8,209.16Z"/><path class="cls-4" d="M84,267.44c2.1,2.82,1.21,6.09,1,9.1-.39,6.2-1.28,12.37-1.87,18.57-.14,1.49-.76,1.59-1.89,1.11-9-3.27-7.27-11.72-9-18.5-.76-3-1.1-6.22-2.22-9.1-1.57-4,.2-4.55,3.57-4.34C77.4,264.51,80.39,267,84,267.44Z"/><path class="cls-4" d="M81.22,315.27a23.11,23.11,0,0,1-7.07-7.84c-2.26-3.88.58-7.67.21-11.54-.12-1.33,1.09-1.46,2.11-.9,1.28.71,2.5,1.53,3.75,2.3C84,300.5,82,304.7,81.81,308.41,81.72,310.65,81.19,313,81.22,315.27Z"/><path class="cls-29" d="M15.12,249.25H12.35a12,12,0,0,1,1-5.94C14.56,245.09,14.82,247.18,15.12,249.25Z"/><path class="cls-29" d="M57.15,318.58l-2.91,3.66c-1.17-2,.45-3.51,0-5Z"/><path class="cls-23" d="M123.07,214.07c-5.46,4.53-9.28,10.49-13.83,15.81-.77.89-1.18,2.62-2.92,1.23-2.67-22.84-12.61-42.33-27.46-59.56-1.38-1.6-3.28-2.84-3.76-5.11,19.07-8.23,39.21-13.66,58.19-22.16a4.16,4.16,0,0,1,1.47-.08,62.88,62.88,0,0,0-1.26,18,21.47,21.47,0,0,0,.42,10.26c-1.11,4.22-4,6.76-8,8.1-3.47,1.17-6,2.86-5.09,7.13s3.32,6.37,8,6.45c2.53,0,5.08-.13,6.1,3,.11.86.1,1.89-.6,2.32-5.28,3.23-7.88,8.37-10.08,13.82C124.09,213.67,123.54,213.89,123.07,214.07Z"/><path class="cls-23" d="M160,325.45c.08,19.43,0,38.87.32,58.31.06,3.82-1.06,4.79-4.74,4.63-6.8-.3-13.63-.19-20.43,0-2.87.06-3.59-.65-3.19-3.66,2.4-18.42,4.11-36.92,7.06-55.27a35,35,0,0,0,.21-4A24.72,24.72,0,0,1,160,325.45Z"/><path class="cls-30" d="M160,325.45H139.22l-8.77-.12c-4.78-1.87-7.57-4.93-7.27-10.52.35-6.42,3-9.37,9.51-9.54l4.48-.15a2.83,2.83,0,0,1,2.85-.19c14.44,6,29.92,5.12,45,6.67,2.47.25,5,0,7.44.46,3.32.63,6.09,1.74,5.92,6-.2,5-2.42,8.06-6.46,8.69a27.09,27.09,0,0,1-3,0c-5.08.38-10.17.16-15.25.13-1.8,0-3.64-.05-5.08-1.42Z"/><path class="cls-31" d="M168.63,325.46l20.49-.14a23.7,23.7,0,0,1,2.33,16.34,237.77,237.77,0,0,1-10.2,33.23,9.78,9.78,0,0,1-2.16,2.1c-4,2.82-6.62,6.06-3.56,11.14-7.15.4-7.18.4-7.15-6.88Q168.49,353.37,168.63,325.46Z"/><path class="cls-32" d="M198.41,402.38c.29,2.8.46,5.62.9,8.4.4,2.57-1.18,2.63-2.93,2.64l-27-5.48c-2-3.37-.76-7.06-.91-10.6-.09-2.25,1.93-1.78,3.32-1.81,4.61-.1,9.22-.14,13.83-.2C189.76,395,196.5,398.68,198.41,402.38Z"/><path class="cls-33" d="M198.41,402.38c-4.17-2.53-8.27-5.2-12.81-7.05l-10.08-7.2c-5.09-5.36-5-5.89,2.76-11.87,2.59-1.27,3.53,1.06,4.71,2.37,4,4.42,7.53,9.18,12.6,12.52a33.08,33.08,0,0,0,7.78,4.26c2.3.75,4.17,2,4.87,4.5.33,1.93.63,3.86-1.18,5.3Z"/><path class="cls-34" d="M160.16,405.28a224.11,224.11,0,0,1-28.77-9.13c9-1.49,18-.27,27-.62,1.56-.06,1.84,1.05,1.83,2.32C160.21,400.33,160.18,402.8,160.16,405.28Z"/><path class="cls-35" d="M133.21,172.15c-2.52-3.39-2.85-6.73.29-10,2.79.24,5.66-.57,8.38.71,1.81.86,2.69-.56,3.72-1.64,4-4.16,6.24-9.38,9-14.88,7.36,6.88,16.3,8.71,25.73,8.89,2.32,0,3.35,1.06,3.62,3.14.24,1.81.35,3.64.53,5.6,1.89,0,1.4-2.34,2.76-2.75,5.44,4.11,5.21,6.35-1.13,11.07a15.39,15.39,0,0,0-3.13,5c-2.16,4.6-5,8.59-9.81,10.83-2.16,1-3.24,2.3-1.71,4.61,1,2.44,3,4.57,2.24,7.54a17.52,17.52,0,0,1-1.41,2c-5.9,8.7-7.58,9.19-17,5-.6-.27-1.23-.47-1.83-.76a34.53,34.53,0,0,1-6.36-13.41c.63-4.92,1.74-9.82-2-14.27-1.67-2-3-3.74-6-3.62A6.58,6.58,0,0,1,133.21,172.15Z"/><path class="cls-32" d="M121.79,58.54c1.19-18.95,17.13-34,35-33.1,19.48,1,34.66,17.52,33.33,36.26-1.31,18.49-17.71,33.55-35.24,32.37C135.68,92.78,120.64,76.63,121.79,58.54Z"/><path class="cls-23" d="M207.06,405.21c1-2,.31-4,0-5.94a2.19,2.19,0,0,1-.1-2c3.09-1,5.18,1.45,7.73,2.29,1.79.59,3.66,2.58,5.41,1,1.46-1.35-.08-3.4-.27-5.14-1.44-4.44-3.9-8.39-5.87-12.57-1-2.1-2.14-4.14-1.76-6.6,4.51-9.83,10.22-19,15.18-28.62,6.11-11.82,12.27-23.62,17.22-36q1.77-4.41,3.16-8.94c3.23-10.55,1.59-14.34-8.27-19.15-8.59-4.19-17.81-6.45-27-8.62a20,20,0,0,1-5.7-1.74c-2.09-4.93-8.62-6.38-9.62-12.19-.23-3.62-2.85-7.31.33-10.81,3.62.42,3.79,4.17,5.87,6.07,3.53,6.49,8.86,8,16,7.06,7.89-1,15.88-1.53,23.82-2.34a12.85,12.85,0,0,1,3.33.38A246.28,246.28,0,0,0,300,271c2.79.2,5.51,1.16,8.36.87,2,0,4,0,6,.06,1.51.06,3.41.09,3.84,1.68.48,1.78-1.08,3-2.5,3.94a21.17,21.17,0,0,1-10.83,3.33c-9.75.49-18.87,3.52-28,6.87-7.16,2.65-10.63,7.6-10.87,15-.36,11.13-.56,22.27.07,33.39q1.25,21.87,2.73,43.73a108.39,108.39,0,0,0,1.76,15.78c2.42,2.94,5.22,5.79,2.79,10.07a8.14,8.14,0,0,1-5.5,3.9c-6.65,1.38-12.44,3.78-15,10.78-14-.75-27.8-2.81-41.68-4.41-3.31-.41-3.19-3-3.49-5.4C207.49,408.78,207.28,407,207.06,405.21Z"/><path class="cls-36" d="M367.11,325.26c.86,5.31.21,10.64.22,16,0,3.75,1.45,4.66,4.74,3.24,2.45,2.24,2.34,5.35,2.7,8.26q3.33,26.85,6.75,53.67c-.08,3.76,1.06,7.36,1.53,11.06-3.57,3-7.57,2.84-11.71,1.55q-.75-8.92-1.91-17.8c-.78-5.95-1.25-6.14-7.17-6.44-5.41-.27-11,1.22-16.22-1.2-1.57-2.66-2.23-5.43-1-8.42,5.43-1.19,10.92-.21,16.39-.45,5.29-.23,5.77-.51,5.08-5.89-2-15.54-3.7-31.1-5.92-46.61-.35-2.42-1.25-4.92.46-7.24C363.16,323.64,365.18,323.6,367.11,325.26Z"/><path class="cls-28" d="M383.05,417.45c-3.84-2.63-2.16-6.73-2.76-10.23,1.13-1.21,2.66-2.21,2.95-3.93.84-4.93,4.27-5.75,8.47-5.75,17.13,0,34.27-.07,51.4.07,2.3,0,5.14-.57,6.17,2.66l-10.51,6.81C420.34,411.29,401.82,415.05,383.05,417.45Z"/><path class="cls-32" d="M346.39,393.4c6.78,0,13.56.11,20.35.09,2,0,3.37.21,3.63,2.78.71,6.73,1.65,13.44,2.65,20.13.23,1.6-.83,1.93-1.68,2.6l-20.07,1.81a3.71,3.71,0,0,1-2.21-3c-.78-4.76-3.39-8.82-4.93-13.28-.38-2.57-1.39-5.07-.79-7.73A5.08,5.08,0,0,1,346.39,393.4Z"/><path class="cls-37" d="M252.88,420.37c.53-6.85,1.76-8.26,8.46-10.43,3.85-1.24,8.36-1.07,11.08-4.88,2.11-1.27,4.51-1.66,6.54-.44,3.23,1.94,6.16,1.37,9.29,0,1.81-.77,3.74-1.37,5.54.15,3.24,4.35,4.46,9.45,5.51,14.62a4,4,0,0,1-1.1,3c-6.21,1.71-12.6,1-18.8.58-7.31-.53-14.61-.29-21.9-.71C255.73,422.16,253.71,422.73,252.88,420.37Z"/><path class="cls-38" d="M345.1,404.27c3.54,5,4.75,10.79,6.17,16.54-.17,3.19-2.59,2.39-4.41,2.36-13.5-.26-27-.59-40.49-.9-2.77-5.31-1.26-9.56,4.43-12.32,4.43-2.15,9.55-2.49,13.74-5.26,3-1.48,6-1.7,8.81.61,1.81,1.49,3.67.9,5.61.21S342.81,403.43,345.1,404.27Z"/><path class="cls-32" d="M325.41,405c-2.71,3.8-7.22,3.68-11.06,4.93-7.45,2.41-8.86,4.45-8,12.32l-8.17.11.09-3.06c.87-6.4,1.66-12.82,2.44-19.24.89-7.29,2.11-8.37,9.5-8.41a24.37,24.37,0,0,1,6.43.44c2.67,2,5.34,4,8.7,4.8C326.85,399.6,328.67,402.3,325.41,405Z"/><path class="cls-39" d="M435.16,245.32c3.54,6.54,9.68,10.43,15.49,14.44,4.58,3.17,7,6.39,6.75,12.41-.52,15.12.27,30.28-.29,45.4-.58,15.8,5.31,29.38,12.73,42.63,1,1.74,2.19,3.32,2.54,5.34.3,6.65.44,13.3,1,19.93.32,4-.66,6.38-5.17,6-6.07-.43-12.07.46-18.1.91-4.55,1.64-5.49,1.15-7.18-3.69-.25-2.56.15-5.2-.82-7.69-1.24-9.43-2.5-18.86-3.34-28.34-.36-2.85-1.19-5.66-1-8.58-1.4-12.44-3.17-24.84-4-37.34a16.86,16.86,0,0,0-.73-6c-.6-10.13-2.83-20.14-2.29-30.35,0-8-.79-16.07,1.08-24a6,6,0,0,1,.69-1.63C433.71,243.45,434.49,244.15,435.16,245.32Z"/><path class="cls-9" d="M46.35,344.26c2-2.06-1-4.13,0-6.19,1.25-1.1,2.75-1,4.26-.92q30.47.94,60.94,0c1.7,0,3.33,0,4.68,1.2.08,5.8-1.59,11.31-2.84,16.89.3-3.83-2.47-3.11-4.68-3.11q-29.71,0-59.44,0C47.88,349.66,48.77,346.34,46.35,344.26Z"/><path class="cls-29" d="M24,314.34c2.59-1.21,2.86-3.45,1.5-5.38-3.33-4.73,1.56-7.78,2.09-11.69.14-1,1.34-.55,2,0a7.48,7.48,0,0,1,2.51,4.21c.9,3.78,1.91,7.38,6.38,8.51a2.46,2.46,0,0,1,1.72,2.23c.47,3.42,2.12,5.44,6,5.12,1.6-.14,3.52.91,3.24,2.32-.33,1.66-.63,4.2-3.11,4.52a40.49,40.49,0,0,1-8.84.5c-1.71-.17-5-.24-3.47-3.8.73-1.71,1-3.17-.63-4.43a4.16,4.16,0,0,0-5.09-.23,17.27,17.27,0,0,1-2.76,1.05Z"/><path class="cls-29" d="M16.06,295.31c6.5,2.14,6.86,3.24,2.6,7.87A24.16,24.16,0,0,1,16.06,295.31Z"/><path class="cls-10" d="M444.1,388.25c-.13,4.47,3.1,4,6,4.09-.38,2.63,1.56,5.49-.79,7.93-1.25-1.63-3.06-1-4.64-1-18.16,0-36.33,0-54.49-.09-3.49,0-5.45.63-4.92,4.62s-2.55,3.37-4.94,3.46q-2.51-18.77-5-37.54c-1.1-8.4-2.15-16.82-3.23-25.22,4.28-1.78,8.56-3.53,13.17-4.25,2.45,2,5.32,2.38,8.38,2.37q19.14-.06,38.29,0c2.43,0,5-.37,7.06,1.58.35,2.7.69,5.4,1,8.09-2.17,2.12-4.95,1.65-7.55,1.66-12.79.07-25.58,0-38.37.05-6.83,0-7.23.3-7.11,6.91.14,7.95-.77,15.94.67,23.85,1.06,2.86,3.54,2,5.55,2,14.77.07,29.55,0,44.33,0C439.81,386.77,442.23,386.34,444.1,388.25Z"/><path class="cls-40" d="M325.26,397.39c-3.35,0-7.14.77-8-4.11-2.85-3.23-.52-7.49-2.2-10.95-2.06-12.84-4.23-25.66-5.25-38.63-.53-5.91-2.48-11.59-2.89-17.51a7.63,7.63,0,0,0,0-1c-.38-1.93,1.15-4.89-1.5-5.55A5.69,5.69,0,0,0,298.5,323c-.15.49-.33,1-.51,1.43a59.39,59.39,0,0,0-.15,12.36c0,5.21.21,10.43,0,15.64-1.12,12.85,1.59,25.59,1.12,38.41-.13,3.27.27,7-4.41,7.73-8.32.38-16.66,1.24-24.86-1.12-2.57-4.22-1.58-9-1.91-13.53-1.94-25.66-4-51.33-3.36-77.11.36-14.6,2.17-17.12,15.81-22.16a86.11,86.11,0,0,1,25.17-5.44c4.68-.25,9-1.75,13.77-6.17h-10.8a.9.9,0,0,1,.25-1.35c4.26-1.86,9.5.21,13.35-3.31a5.12,5.12,0,0,1,3.77.14c1.69,1.16.85,2.91,1,4.41a5.81,5.81,0,0,0,3.21,5c4.14,2.29,7.65,5.56,12.91,5.92,4,.27,7.19,0,9.8-3.22a3.71,3.71,0,0,1,2.56-1.41l6.65-3.11a138.38,138.38,0,0,1,4.58,35c-1.13,2.76-3.87,2.91-6.15,3.73a41.82,41.82,0,0,1-7.29,1.73c-8.4,1.38-8.4,1.39-8.17,9.75.24,17.13,1.59,34.21,2.12,51.32.08,2.6.48,5.37-1.4,7.66l.9,8a3.25,3.25,0,0,1-2.28,2.89A31.07,31.07,0,0,1,325.26,397.39Z"/><path class="cls-41" d="M448.4,111.5c-3.37-10.19-3.53-19.89,4.32-28.38C461,74.18,469.35,72.7,480,78.63c2,1.11,2.17-.18,3-1.12,6.36-7.46,12.74-9.39,20.65-6.28,7.39,2.9,11.59,9.74,11,18.77a71.76,71.76,0,0,1-1.94,12.78c-2.12,8.69-2.14,17,2.27,25.12a18.7,18.7,0,0,1,2.11,13.51,16,16,0,0,1-10.82,12c-3.39.17-5.62-2.54-8.59-3.43-2-1.1-4.16-2-4.62-4.67,1.17-6.25.26-11.83-5-16.16a4.39,4.39,0,0,1-1.36-3.13c.4-2.55,2.23-3.53,4.49-4a31,31,0,0,0,3.44-.62c2.34-.76,4.57-2,4.24-4.77-.38-3.13-3.17-3-5.49-2.87-7,.44-7,.49-9.28-6.24-1.88-5.63-6.19-7.95-11.76-6.21-4.49,1.41-9.22,1.24-13.77,2.25-1.28.28-3,.28-3.21,1.86s1.55,1.35,2.48,1.83,1.85,1,1.67,2.17c-.21,1.43-1.43,1.86-2.58,1.89-2.5,0-4.57.42-5.3,3.32a1.42,1.42,0,0,1-2.07.77C447.82,114.59,448.44,112.93,448.4,111.5Z"/><path class="cls-42" d="M435.16,245.32l-1.91-.94c-3.12.69-4.82-.49-4.95-3.75,1.44-7,3.48-13.92,5.12-20.91.3-4.14,2.34-7.95,2.24-12.16.22-3.53-.51-7.13.75-10.58.27-.41.71-1,1.06-.89,8.19,3.62,16.54,7,22.25,14.44a2.06,2.06,0,0,1,.13,1.44c-1.41,9.91-1.86,19.9-2.3,29.89.36-9.64.91-19.26,2.2-28.83,2.19-3,4.09-.52,5.72.55,5,3.26,9.77,6.78,15.32,9.1,7.38,3.09,9.27,2.23,12.66-5,1.39-3,.95-7,4.79-8.64,1,10.58,1.89,21.18,3.11,31.75.32,2.79-1.89,3.05-3.07,4.38-.08,1.34-.15,2.68-.22,4-.53-4.44-3-4.51-6.72-3.57-8.29,2.14-16.77,3.59-25,5.88-4.41,1.23-7.65,1.54-8.89-5.23-2,5.28-4.69,4.82-8.21,3.6C444.57,248.29,440.25,245.57,435.16,245.32Z"/><path class="cls-9" d="M439,344.17c-16.44,0-32.89,0-49.33.08-3,0-4.93-.51-4.4-4,7.65-1.49,8.55-6.56,8.18-13.41-.39-7.27-1.4-14.43-2-21.65,13.37-.87,26.74-.21,40.12-.34a4.48,4.48,0,0,1,3.51,1.57Q437,325.27,439,344.17Z"/><path class="cls-43" d="M363.14,154.08c5.83,2.75,6.16,5.51,1.12,9.46-1.26-.65-.76-2.24-1.7-3.18.27,1.48.91,2.89-.12,4.23-8,3.19-5.81,9.5-4.7,15.46-.49,2.88-3,3.92-5.08,5a23.35,23.35,0,0,0-10.25,10.41,2.36,2.36,0,0,1-2.13.13c-1.25-.92-1.59-2.42-2.31-3.67-1.76-3.37-5.14-5.73-5.94-9.68-.24-1.43,0-3.3-1.33-4-5.51-3-8.23-8.75-12.73-12.71a5.18,5.18,0,0,1-.63-3.7c-.27.87-.33,1.79-1.22,2.24-5.19-4.27-5.14-6.54.53-9.81,1.48-.85,1.57-1.94,1.8-3.21.55-1.93.38-3.93.61-5.89.6-5,1.45-6.29,6.26-6.31,7.42,0,14.84.52,22.27.15,4-.2,6.16,1.76,6.78,5.67.43,2.78,1.39,5.45,1.8,8.46C358.42,153.43,361.22,151.06,363.14,154.08Z"/><path class="cls-44" d="M448.4,111.5c1.16.76.08,2.74,2.28,3.38-.68-6.83,4.83-4.31,8.57-5.11-2-2.93-4.61-1-6.74-2,.51-3.87,2.1-5.8,6.62-5.94,5.89-.18,12-.42,17.3-3.74.73-.46,1.56-.87,2.12.13,2.16,3.85,7.6,5.23,7.64,10.86,0,2.84.78,5.71,5.47,3.43,4.33-2.11,8.84.29,9.29,3.7s-3.17,6.79-7.62,6.91c-2.65.08-5,.13-6,3.07-2.8,4.34-3,9.14-2.5,14.08-.56,2.72-3,3.84-4.79,5.45-3.21,2.83-6.93,5.06-9.68,8.44-.79,1-2,1.83-2.81.44-2.07-3.78-5.24-7.36-3.31-12.25,1.74-3.38,1.57-5.89-2.73-7.1a9.64,9.64,0,0,1-4.68-3.63c-3.12-4-5.05-8.57-10.8-10.61C441.45,119.43,442.67,115.1,448.4,111.5Z"/><path class="cls-42" d="M326.24,269.25l-4-.15c-1.94-2.12-.78-4.39-.25-6.58,3.21-13.08,4.33-26.46,5.56-39.81.3-3.25,2.5-5.68,3.73-8.54,1-2.26,2.9-4.35,3.16-6.67,1.15-10,9.71-12.09,16.57-16,1-.6,2.16-.94,3,.44,1.27,3.07-.3,5.89-.81,8.79a62.6,62.6,0,0,0-.42,16.41,72,72,0,0,1-.67,15.31c.59,5.71.77,11.51,1.88,17.12.95,4.78,0,7.7-4.62,9.8-1.84.84-5.87.77-4.45,4.95-1.55,1.67-3.65,1.36-5.58,1.37s-3.6.25-4.76,1.95C331.87,268.67,329.25,270,326.24,269.25Z"/><path class="cls-45" d="M498.24,209.06c-1.85,4.38-3.58,8.82-5.58,13.13-1.62,3.5-4.3,4.58-8.17,3.35-7.2-2.31-13.35-6.44-19.48-10.64-1.49-1-3.06-1.9-4.6-2.85-.8.24-.83-.54-1.17-.9-5.28-4.07-9.72-9.31-16.71-10.94-2.06-.48-3.78-2.46-5.65-3.75-4.28.28-6.31-1.53-6.25-6.17,0-1.91,0-3.16-2.19-3.41-3.14-1.61.14-4.07-.8-6a4.73,4.73,0,0,1,1.66-4.27,22.37,22.37,0,0,1,2.75-2.09,18.11,18.11,0,0,1,4.47-2c2.83-.11,5,1.41,7.15,2.95a31.91,31.91,0,0,1,4.32,5.55c2.68,6.19,5.89,11.84,13.27,13.36.65.25,1.28.53,1.91.83a115.22,115.22,0,0,0,11.42,4.51c2.38.79,3.7,0,4.32-2.43s.45-5,2.67-6.67c7,.61,13.89,1.34,19.77,5.67Q499.8,202.7,498.24,209.06Z"/><path class="cls-23" d="M328.53,221.91c.44,7.91-1.15,15.66-1.81,23.48-.69,8.06-3.16,15.77-4.5,23.71-1.94,3.56-5.19,3.58-8.63,3.28-1.77-.16-3.56-.06-5.34-.08a261.43,261.43,0,0,1-45.59-6.1c-4.84-1.07-9.74-2-14.36-3.86-.55-2.51,1.61-2.08,2.8-2.37,5.58-1.34,11.56-.74,16.79-4,2.18-1.33,3.45,1.17,4.92,2.35,2-4.63,7.73-4.19,10.38-7.88,8.82-1.58,17.62-3.19,25.29-8.28l3.37-3c4.22-2.81,6.87-7.12,10.25-10.72a9.77,9.77,0,0,1,.8-1.11C324.94,225.76,325.51,222.58,328.53,221.91Z"/><path class="cls-9" d="M432,270.28q1.23,15.56,2.47,31.12c.38,2.66-1.58,3.2-3.4,3.23-12.31.22-24.64.18-37,0a4.25,4.25,0,0,1-2.68-1.21c-1.52-11.5-3.2-23-6.12-34.22a8.24,8.24,0,0,1,4.35-.72c11.94.07,23.88,0,35.81.06C427.78,268.59,430.19,268.38,432,270.28Z"/><path class="cls-46" d="M197.59,249.65c-.88,3.93.81,7.71.73,11.59,1.19,3.15.05,5.12-3.15,5.78s-6.39,2.72-10,1.58c-2.39-2.76-2.14-6.38-3.13-9.6-2.92-17.17-6.57-34.21-9.36-51.41-.39-2.41-1.29-4.9.32-7.24-.08-2.61-1.73-4.66-2.53-7a3.27,3.27,0,0,1,3-1.31c6.19.56,12.4,1.1,18.25,3.48,1.51.62,3,1.35,3.61,3.09a41.48,41.48,0,0,1,7.69,11.67,5.11,5.11,0,0,1-1.48,5c-5.15,5.69-7,12.16-4.92,19.63.29,1.47.61,2.93.82,4.41C197.07,242.76,199.51,246.19,197.59,249.65Z"/><path class="cls-11" d="M297.4,116.81c0,22.46-18,40.57-40.16,40.28s-39.94-18.43-39.85-40.28a39.83,39.83,0,0,1,40.13-39.73C280,77.1,297.39,94.46,297.4,116.81Z"/><path class="cls-47" d="M392.06,47.89c0,21.7-18,39.51-39.46,39.2a39.34,39.34,0,1,1,39.46-39.2Z"/><path class="cls-48" d="M363.14,154.08c-.49-.1-1.07-.43-1.45-.27-6.19,2.52-7.37-1.45-8.34-6.16-1.55-7.49-1.76-8.21-9.36-7.19-6.36.86-12.49-.49-18.76-.09-3.47.21-5.18.73-5.33,4.45-.08,2.09-.94,4.16-1.45,6.23-.68-6.93-1.37-13.86-2-20.79-.64-6.56,1.08-5.62,6.55-8.65,4.8-2.65,10.44.12,14.19-4.13a2.35,2.35,0,0,1,1.84-.63c5.25,1,10.35,2.6,15.64,3.5,1.31.23,2.53,1.91,4.76,1.92,4.31,0,5.24,3.63,5.27,7.08a78.52,78.52,0,0,1-.75,13.9C363.29,146.88,363.46,150.48,363.14,154.08Z"/><path class="cls-49" d="M432,270.28l-40.91,0c-2,0-4,.19-5.79-1-1.79-4.32-1.72-7.36,3.23-10.25,5.24-3.06,9.64-7.75,6.78-15.14a2.84,2.84,0,0,1,.88-3.57c2.09,2.79,5,3.42,8.3,3.37,7.11-.12,14.23-.13,21.35,0a13.9,13.9,0,0,1,7.15,1.64A248.09,248.09,0,0,0,432,270.28Z"/><path class="cls-24" d="M501.35,196.32l-20.09-5c-3-.64-2.59-3.19-2.44-5.12a124.34,124.34,0,0,1,5.47-28.7,11.93,11.93,0,0,1,14.25-8.36c3.08.54,5.22,2.76,7.75,4.29,4.06,6.34,3.7,13.33,2.48,20.22-1.18,6.67-3.13,13.19-4.62,19.81C503.77,195.15,503.18,196.25,501.35,196.32Z"/><path class="cls-42" d="M443.31,176.22c-2.44-.75-4.39-2.7-7.07-2.86a4.16,4.16,0,0,1-1.15-4.08c1-6.65,1.61-13.44,6.14-18.95,5.64-4.21,12.61-4.07,19-5.85,3,5,5.11,10.52,8,15.63-1.22,10.43-3.62,20.67-5.05,31.06-.21,1.52-.47,3.33-2.15,4.25-8.34-1-11.37-7.4-14.09-14.07.51-1.64,2-2,3.31-2.73,1-.58,2.24-1.19,1.45-2.62-.55-1-1.66-.85-2.66-.58C447.15,175.93,445.38,177.14,443.31,176.22Z"/><path class="cls-50" d="M314.22,236.28c.16-4.94-.55-9.9.68-14.82.6-2.44-1.59-4.26-2-6.54-.3-1.7-1.59-3.21-1-5.24,2.31.75.82,3.53,3.33,4.67V198.84c3.23,1.26-.13,3.77,2.15,5q3-7.76,5.91-15.46c3.49.48,4.6,4,7.2,5.63a5.4,5.4,0,0,1,1,2.19c.31,6.78,1.26,13.6-1.13,20.22-1.23,4.65-4.71,8-7.1,11.94l.06-.06C320.38,231.06,318.54,235.07,314.22,236.28Z"/><path class="cls-51" d="M352.07,232.44c-1.25-11.75-2.62-23.52.29-35.21a21,21,0,0,0,.83-5.81c1-4.31,3.07-7.91,7-10.17,2.67-.19,4.69,1.47,6.94,2.48,2.06.93,2.77,2.64,1.42,4.43-3.2,4.2-3.43,9.31-4.15,14.11-.57,3.81-1.84,6.16-5.51,7.24-3.27,1-4.3,2.74-1,4.85s3,4.11.88,7.14C356.35,225,353.48,228.28,352.07,232.44Z"/><path class="cls-52" d="M195.39,198.59c-7.88-3.74-16.31-4.85-24.89-5.26-2.67-2.65-3.15-4.46,1.32-5.9,5.6-1.81,8.33-6.64,10.42-11.81.72-1.78.95-4.07,3.84-3.29-.05,6.29,1.22,11.4,8.88,12.43a6,6,0,0,1,5.18,5.9C200.3,194.22,198.85,197.07,195.39,198.59Z"/><path class="cls-53" d="M197.59,249.65a30.16,30.16,0,0,1-1.32-10.17c3.64-4.79,7.69-9.14,13-12.16,5.09,4.34,6.47,10.57,7.73,16.59.52,2.5,1.6,2.32,3.17,2.48.17,2.15-1.62,2.61-3,3.45a12.64,12.64,0,0,0-6.27,2.65c-2.64,1.84-5,4.41-8.74,4C199.82,254.78,199.31,251.81,197.59,249.65Z"/><path class="cls-54" d="M436.88,208.51c-.06,4-1.35,7.69-2.36,11.46-4.44,4.95-11.48,5.27-16,.76-1.34-1.59-.38-3.72-1.29-5.41a149.27,149.27,0,0,1-8.66-21.09,49.53,49.53,0,0,0-4.73-10.88c-4.24-6.86-3.68-15.38-7.47-22.45-.81-1.53.1-2.36,1.73-2.75,2.4-.58,4.75-1.4,7.12-2.11a2.36,2.36,0,0,1,1.4,3.14c-5.19,3.49-5.29,3.52-3,9.61,5.3,13.84,10.67,27.66,16.21,41.4,1.77,4.38,2.39,4.45,6.66,2.4C429.87,211,432.57,207.69,436.88,208.51Z"/><path class="cls-55" d="M333.82,267.14c.19-2.61,2-3.21,4.15-3.16s4.61.21,6.91.33l10.27,14.94c-5.43,7.48-7.23,7.7-16,5.35-4-1.07-6.55-3.84-10-5.46-2.05-3.78,1.66-4.69,3.32-6.58C333.93,271,336.61,269.73,333.82,267.14Z"/><path class="cls-56" d="M270.33,239.1c3.25.16,6.58.13,9.57,1.58,3.45,1.67,6.58,3.78,6.17,8.38-5.32,3.21-11,4.29-17,2.4-1.88-.59-2.49,1.2-4.11,1.23-13.6.22-27.16.16-40.52-2.94-1.27-.3-2.65-.42-3.4-2.35,4-1.32,8.11-.31,12.07-.63,6.17,1.34,12.43-.25,18.68.6,3.53.48,6.1-3,9.23-4.36,1.42-1.48,3.48-1.81,5.15-2.83l-.05,0C267.55,239.86,268.76,238.83,270.33,239.1Z"/><path class="cls-57" d="M417.22,215.32c1.2,1.05,1.53,2.54,2,4-3.53,2.75-7.66,1.41-11.53,1.57-6.5.27-6.79.34-6.77,6.75,0,12-1.06,10.9,11,11,4,0,8-.08,12,.05,1.95.07,4-.07,5.43,1.8-.47,3.13,2.41,2.85,4,3.93a2.09,2.09,0,0,1-.24.91c-10.64,0-21.28-.18-31.9.1-4.06.11-5.47-1.29-4.9-5.12.08-7.42.14-14.84.27-22.26,0-1.24-.55-2.88,1-3.52,1.72-.69,1.5,1.22,2.16,2s1.79.72,2.77.73c4,0,7.92,0,11.88,0C415.74,217.23,417,217.06,417.22,215.32Z"/><path class="cls-58" d="M343.22,325.27c-.37-8.71-.39-8.81,8-9.89a59.83,59.83,0,0,0,15.11-4.2c1.1,4.65.81,9.37.73,14.08l-5.86.19C355.22,327.73,349.21,327.94,343.22,325.27Z"/><path class="cls-59" d="M467.17,159.28a25.72,25.72,0,0,1-6.95-14.81l4-2.08c.59,4.35,2.61,8.2,4.16,12.3,4-6.14,10.77-9.11,15.64-14.14,3.64-2,4,1,4.91,3.21-1.57,7.77-8.4,10.57-13.94,14.51-1.83,1.31-4,2.39-6.52,1.83A5.24,5.24,0,0,1,467.17,159.28Z"/><path class="cls-60" d="M270.33,239.1c-1.39.38-2.53,1.71-4.18,1.12,9.32-6.25,16.3-14.13,18.44-25.59a38,38,0,0,0,.65-7.35,14,14,0,0,0-7.6-8.81c-4.13-2.07-5.59-6.52-5.07-11.11.47-4.12,3.16-6.78,6.9-8.45,1.64-.73,3.15-1,4.68.14,3.91.63,7,2.45,8.77,6.14,2,4.82,1.83,9.26-2.18,13.12-2,1.93-2.1,4.86-3.51,7.12C286.38,219.05,281.88,230.85,270.33,239.1Z"/><path class="cls-61" d="M195.38,235.43c-4-10.39,2.76-17.5,7.7-25.16,4.13,1.28,6.53,7.08,5,11.95C205.91,228.64,202.43,233.75,195.38,235.43Z"/><path class="cls-62" d="M234.08,247.52H222.83c12.48,4.76,49.18,4.78,63.24,1.54,8.06-.36,15-4.3,22.41-6.85-5.81,5.45-13.38,6.42-20.66,8.12l-4.8,1.09c-7.88,3.12-16.27,3.37-24.45,3.11-10.08-.32-20.25-.69-30.24-2.58a16.87,16.87,0,0,1-5.05-1.45c6.9,3,13.4,6.2,20.35,8.33a6.1,6.1,0,0,1,3.72,2.33c.06,1-.17,1.63-1.36,1.23l-2.7-.3c-8.8-.81-16.09-5.46-23.7-9.28a3.58,3.58,0,0,1-2.35-2.94c-.21-2.16,2.13-2.17,2.93-3.48l19-.15a.89.89,0,0,1-.23,1.38A15.49,15.49,0,0,1,234.08,247.52Z"/><path class="cls-63" d="M284.15,179.05c-6.52,1-10.33,4.29-10.54,9.18-.24,5.86,2.88,9.63,9.59,11,1.77.37,2.16,1.17,2.16,2.61,0,1.81-.08,3.63-.12,5.44-1.9.93-3.45,1.76-4.49-1.36-.57-1.71-2.51-3-4-4.37-5.57-5.21-7.52-11.72-6.38-19.06.59-3.84,4.48-4.11,7.38-5.17.37-.14,1.32.71,2-.08C283,173.69,283.39,176.82,284.15,179.05Z"/><path class="cls-64" d="M360.23,181.25c-2.21,3.48-4.07,7.21-7,10.16-2.32,1.58-4.27,4.15-7.07,4.45-6.08.64-7.6,4.86-9.31,9.7a81.11,81.11,0,0,1-8.28,16.36c-1.84,2.06-2.37,5.23-5.3,6.4,1-4.35,4.91-7.11,6.27-11.28a112.42,112.42,0,0,1,5.18-13.38c1.39-3,1.8-5.34-2.27-6.28a3.28,3.28,0,0,1-2-2l-1.71-1.47a2,2,0,0,1,.84-1.11,3.4,3.4,0,0,1,2.09-.08,36.74,36.74,0,0,0,9.08,2.61l1.07-.15c7.12-3.28,12.75-8.11,16.05-15.38,2.07-4.92,2-10.44,4.42-15.25.15-1.3.4-2.59-1-3.47-1.11-.68-1.61-1.73-.7-2.87a2,2,0,0,1,1.67-.6,2.48,2.48,0,0,1,1.9,2.54l.21,3.44A103.44,103.44,0,0,1,360.23,181.25Z"/><path class="cls-65" d="M391.45,303.45c12.65-.06,25.3-.1,37.95-.23,1.84,0,4.16.89,5.09-1.82,1,1.57.53,3.3.53,5q-19,0-37.94-.05c-2,0-4,.39-5.69-1.17Z"/><path class="cls-66" d="M441.23,150.33c-2.36,7.52-4.78,15-5,23l-4,2c-1.75-.86-2.21-2.12-1.2-3.84,1.54-5.91,2.6-12,5.9-17.28A9.3,9.3,0,0,1,441.23,150.33Z"/><path class="cls-67" d="M431,171.57l1.2,3.83-2,1.79c-3.57-2.24-3.6-6.42-5.3-9.68a27.94,27.94,0,0,1-2-5.55c-.92-3.44-2.74-5.52-6.62-5-1.87-1-2-2.12-.33-3.44,7-1.86,6.92-1.85,9.6,4.85C427.29,162.81,429.19,167.18,431,171.57Z"/><path class="cls-68" d="M195.38,235.43c5.48-3.19,9.27-8,12.66-13.21l1.23,5.1a73.44,73.44,0,0,1-13,12.16C196,238.13,195.67,236.78,195.38,235.43Z"/><path class="cls-69" d="M415.92,153.55c-.32,1-1.24,2,.24,2.79-2,4.14-6.32,5.32-10.11,2.75l-.84-3.05C407.87,151.28,411.93,152.57,415.92,153.55Z"/><path class="cls-70" d="M287.23,205.43c-.5-3.49-.5-6.38,3.16-8.84,3.89-2.62,3.13-7.26,2.53-11.4C297,193.05,295.07,199.85,287.23,205.43Z"/><path class="cls-71" d="M316.12,164.07c0-.33,0-.65.07-1,.16-1.86-.78-4,1.33-5.35,1.44-.89,2.16.53,1.54,3.17-.19.77-.6,1.49-.74,2.27a9.6,9.6,0,0,0,0,1.93c2.27,4.27,2.68,9,3.39,13.65a2.16,2.16,0,0,1-1.59,1.65C317.4,175.32,317.68,169.47,316.12,164.07Z"/><path class="cls-60" d="M239.21,247.2q0-.48,0-1a133.44,133.44,0,0,0,27-6.06c-.46,2.14-2.84,1.52-3.94,2.74C255.21,247.74,247.33,248.14,239.21,247.2Z"/><path class="cls-72" d="M314.22,236.28c3.81-1.79,5.38-6.1,9.07-8-2.82,4.7-5.85,9.18-11.44,11Z"/><path class="cls-42" d="M328.75,192.17c0,.57,0,1.14-.07,1.7-2.37-1.31-3.63-3.68-5.42-5.53a1.32,1.32,0,0,1,0-.56,5.52,5.52,0,0,1-.28-1.4,1.55,1.55,0,0,1,1.29-.45A9.64,9.64,0,0,1,328.75,192.17Z"/><path class="cls-73" d="M324,186.33l-.78,1.45a20.18,20.18,0,0,1-3.12-7.36l.81-1.15C323.76,180.85,324.6,183.28,324,186.33Z"/><path class="cls-74" d="M207.21,272.33c10.6,2.09,21.08,4.6,31,8.95a32.78,32.78,0,0,1,9.33,5.66,9.43,9.43,0,0,1,3.17,9.39c-2.28,11.9-7.6,22.64-12.76,33.39-7.67,16-16.18,31.63-25.17,46.95-1.48,1.86-3.4,1-5,.5-3.64-1.2-6.4-.92-7.71,3.23a2.59,2.59,0,0,1-1.38,1.34c-6.66-.93-13.21-2.19-18.64-6.59,2.71-8.83,4.93-17.85,8.27-26.43,3.08-7.91,1.63-15.57.75-23.4,2.75-.33,5.95.94,7.09-3.47,1.88-7.26,1.29-8.35-6.42-8.57a320.42,320.42,0,0,1-42.61-3.89c-3.79-.61-6.58-3.07-10-4.26a26.18,26.18,0,0,1-7.11-13.73c.07-2.36.13-4.73.19-7.09,1.38-1.47,3-1.38,4.63-.63a1.62,1.62,0,0,1,.74,1.21c-.32,9.8,4.73,15.59,13.74,18.45,10.58,3,21.42,4,32.35,4.49A159.56,159.56,0,0,1,199,309.37c6,.94,6.4,1.74,5,7.54-3.54,14.37-8.58,28.25-13.52,42.17-1.19,3.35-2.11,6.81-3.74,10,6.32-17.09,12.75-34.14,17.21-51.85,1.56-6.23,1.18-6.82-5-8a110.25,110.25,0,0,0-15.34-1.37,185.11,185.11,0,0,1-33.93-4.32c-6.65-2.78-12.84-6-13.69-14.31-.2-1.92-.82-3.88.54-5.65,7.95-3,16.15-3.36,24.52-2.56,5.94.57,11.86,1.61,17.86,1.15,4.07,0,8.19.58,12-1.72,2-1.2,3,.16,3.49,2,.6,2.23,2.49,2,3.43,1C201.1,279.89,207.13,278.58,207.21,272.33Z"/><path class="cls-46" d="M135.16,284.39l-4.91-.08c-3.83-3.38-2.17-8.16-2.7-12.19-2.49-19.26-5.11-38.54-4.48-58.05,1.39-7.27,5.16-12.82,11.74-16.35,4.06-2.43,7.87-5.58,13.14-4.37l6.08,13c2.57,1.5,3,4.18,3.79,6.71,4.65,15.45,4.2,31.34,4,47.2-.31,2.53,1.64,3,3.36,3.45,4,1.15,8,2.09,12,3,2.09.46,4.28.73,5.63,2.73a20.8,20.8,0,0,1-2.73,13.72c-5,2.52-10.17.48-15-.09-9.68-1.15-19.09-.32-28.55,1.3A.79.79,0,0,1,135.16,284.39Z"/><path class="cls-75" d="M116.26,338.35c-22,1.16-44,.44-66,.38a22.76,22.76,0,0,1-3.89-.66c.41-3.77-2.63-7.28-.83-11.15,24.06-.27,48.11-.36,72.16.08C118.42,330.94,116.67,334.56,116.26,338.35Z"/><path class="cls-2" d="M117.71,327l-72.16-.08c9.54-1.23,19.13,0,28.67-.71a2.24,2.24,0,0,1,3,0c11.91.06,23.81.11,35.72.22C114.53,326.45,116.24,325.83,117.71,327Z"/><path class="cls-29" d="M24.51,288.47c1.28,3.34,0,5.35-3.27,5.64-2.57.23-4.83-1.45-4.71-4,.16-3.18,2.62-5.29,5.74-5.75C26.14,283.8,24.82,286.58,24.51,288.47Z"/><path class="cls-29" d="M77.22,326.21h-3c1.28-7.83,1.36-7.9,7.16-5.34C79.57,322.36,76.64,323,77.22,326.21Z"/><path class="cls-52" d="M148,193.35l-13.15,4.36c-1.62-2.31-3.64-2.82-6.49-2.26-4.4.85-7.79-2.18-8.91-7.33-1.06-4.81.18-7.32,5.1-8.52,4.32-1.07,6.9-3.69,8.71-7.45,2.8.95,5.43,2.31,8.62,1.95,1.87-.22,7.35,7,7.48,9.49C149.49,186.92,149.42,190.24,148,193.35Z"/><path class="cls-76" d="M180.1,375.15l18.72,6a1.94,1.94,0,0,1,1.26.53c2.57,5.13,6.27,9.73,7.16,15.63-.06.65-.11,1.29-.16,1.94-.5-.65-.9-1.71-1.52-1.86-11.45-2.82-18.14-11.61-25.23-19.91a7.92,7.92,0,0,0-2.05-1.25A2.06,2.06,0,0,1,180.1,375.15Z"/><path class="cls-77" d="M160.22,261.24c-.16-13.07.65-26.17-1.89-39.15-1.06-5.38-2.74-10.55-4.3-15.78,1.44-1.48,2.41.14,3.42.64,6.19,3.08,8.74,2.38,12.68-3.58.77-1.17,1-3,2.9-3q4.86,26.66,9.69,53.32c.33,1.79.48,3.61.72,5.41A35.89,35.89,0,0,1,160.22,261.24Z"/><path class="cls-78" d="M163.91,159.5c-3.27-.78-6.08.83-9.32,1.69C157.13,156.78,160.09,156.21,163.91,159.5Z"/><path class="cls-79" d="M174.3,159.07c4.09-2.17,6.55-1.49,9.81,1.4C180.37,160.29,177.73,160.51,174.3,159.07Z"/><path class="cls-80" d="M170.36,64.05l5,.39c-5.18,7.86-11.72,14-18.46,19.91a1.44,1.44,0,0,1-2.15,0C148.3,78.65,142,72.86,137.13,65.66c-.2-.3.14-1,.23-1.44a13.52,13.52,0,0,0,3.88-6.16c.82-1.3.57-3.79,2.59-3.68s2.34,2.39,2.81,4.11a69.21,69.21,0,0,1,2,7.05c.73,2.32,1.39,4.67,2.27,7.58,1.08-5.55,2-10.57,2.85-15.58.35-2,.7-3.92,2.29-5.35l1-.79A4.53,4.53,0,0,1,159.22,54c1.28,6.43,3.45,12.69,3.71,19.31-.41-4.88.78-9.54,1.9-14.22.27-1.12.4-2.53,1.72-2.76,1.65-.3,2.14,1.24,2.72,2.39A15.25,15.25,0,0,1,170.36,64.05Z"/><path class="cls-81" d="M142.23,59.26c-1.2,2.08-1,5.52-4.87,5-4.83-3.18-7.7-11.11-5.86-16.14,2.06-5.61,7.32-7.83,13-5.18a23.25,23.25,0,0,1,10.7,9.35c-.85,7.08-2.33,14-3.91,22.15-2.12-3.32-2.34-6-3.19-8.47-1.37-4.4-2.15-9-4.19-13.64C142.78,54.67,141.88,56.79,142.23,59.26Z"/><path class="cls-80" d="M158.23,51.25c2.56-4.71,10.64-9.18,15.53-8.59a8.3,8.3,0,0,1,7.47,8.41c.11,7.2-4,12.22-10,12.15-2.89-1.64-2.06-5.46-4.59-7.74-1.46,2.2-1.39,4.7-1.88,7a47.63,47.63,0,0,1-2.06,6.87A94.69,94.69,0,0,1,158.23,51.25Z"/><path class="cls-82" d="M158.23,51.25c2.55,5.39,2.36,11.5,4.58,17.19C163.9,63,165,57.66,166.28,51c2,5,3.5,8.6,5,12.22l-.9.83c-2.27-1.66-1.56-4.93-3.77-6.89-1.12,5.88-2.2,11.62-3.29,17.35l-.85,0Q159.75,63,157.06,51.4Z"/><path class="cls-83" d="M148.32,65.06l2.47,7.07c2.21-6.54,1.89-13.53,4.42-19.88a1.87,1.87,0,0,1,.88-.06q-2.24,12.54-4.46,25.08l-1.15-.1q-1.48-5.49-3-11A1.58,1.58,0,0,1,148.32,65.06Z"/><path class="cls-84" d="M180.06,283.12c-.2-4.78,1.59-9.24,2.23-13.88a2,2,0,0,1,3.06-1.2,84.47,84.47,0,0,1,9.39-2.29c3-.39,3.75-1.93,3.58-4.51.87,2,1.48,3.92,4.31,4.52,3.09.65,2.93,4.43,4.58,6.57-.25,1.53.42,2.91.68,4.35.3,1.73,1.17,4.55-2.49,2.54-.77-.42-1.14-.51-1.21.48a9.12,9.12,0,0,1,0,1.48c-.43,1.7-.51,4.37-3,1.26-.22-.28-.48-.53-.73-.79a8.24,8.24,0,0,0-.28,1.45c0,4.39-4.7,1.79-6.08,4.11-2.06-1.62-.34-4.06-1.44-6.19A14.58,14.58,0,0,1,180.06,283.12Z"/><path class="cls-55" d="M217.24,249.87c7.95,5.63,17.17,8.56,26,12.22q-13.57,1.47-27.16,3c-6.86.75-11.35-2.35-13.95-8.54,3.33-2.15,6.81-4.11,9.93-6.53C214,248.48,215.49,248.3,217.24,249.87Z"/><path class="cls-85" d="M198.82,381.18c2.25-6.85,2.24-6.82,9.23-5.13a41.68,41.68,0,0,0,4.75.62c2.25,6.44,6.6,11.94,8.31,18.62-2.06,1.75-4.07.71-6-.16a35.72,35.72,0,0,1-15.89-13.89Z"/><path class="cls-86" d="M269.64,397.49l24.23-.19c2.66,3.05,1.9,5.65-1.06,7.95-3.25-1.34-5.3,1.76-8.08,2.24-1.41.25-3.06,1.51-4-.07-2.14-3.52-5.28-2.52-8.3-2.36C273.8,401.69,273.33,399,269.64,397.49Z"/><path class="cls-87" d="M199.18,381.24c4.16,2.95,7.07,7.33,11.5,10,3.25,2,6.43,4,10.43,4,.7,2.51,2.68,5.61.54,7.47-1.89,1.64-4.6-.8-6.83-1.74-2.58-1.1-5.06-2.44-7.58-3.68A98.83,98.83,0,0,1,199.18,381.24Z"/><path class="cls-88" d="M246,262.39l1.11-.87a.61.61,0,0,1,1-.15c13.76,4.87,28.13,6.72,42.46,8.8,5.88.85,11.9.44,17.67,2.13a1.23,1.23,0,0,1,.07.78,256.92,256.92,0,0,1-50.5-7.19C253.82,264.94,249.71,264.31,246,262.39Z"/><path class="cls-23" d="M343.22,325.27l18,.18c2.46,19.12,4.84,38.25,7.46,57.34.4,2.94-.12,3.89-3.11,3.8-5.49-.17-11-.06-16.49,0-1.37,0-2.65-.08-3.62-1.19Q344.35,355.32,343.22,325.27Z"/><path class="cls-89" d="M325.26,397.39a107.12,107.12,0,0,1,18.85-1.1l1,8c-2.44,1-4.91,2-7.32,3.09-1.95.89-3.51,1.46-5-1C331,403.57,328,405,325.41,405,326.91,402.45,325,399.94,325.26,397.39Z"/><path class="cls-90" d="M292.81,405.25c.9-2.58,1.79-5.16,1.07-7.95,3.66.57,3.54-1.87,3.45-4.32q-.58-17.64-1.14-35.27c-.05-1.82.16-3.64.26-5.45,2.4.54,1.65,2.51,1.75,4,.26,4.05-.73,8-.5,12.08.05-12.75,2.05-25.34,3.05-38a7.77,7.77,0,0,1,2.15-5.41c1.79-1,3.52-1.16,5.15.32l3,17.9c-1.69.24-1.15-1.15-1.28-1.5,1.07,9.42-1.13,19.05-2.26,28.75-.35,3-.76,5.93-1,8.91-.38,4.91,1.67,6.53,6.41,5.08,1.32-.41,2.12-1.59,3.41-2,2,3.5.1,7.31.86,10.9-3,.08-6,.57-8.91.13-4.62-.69-5.64,1.66-6,5.48-.49,5.43-1.32,10.84-1.95,16.27-.19,1.67-.27,3.34-2.09,4.16C296.5,414.62,295.67,409.54,292.81,405.25Z"/><path class="cls-9" d="M386.3,385.31c-1.94-1.95-1-4.41-1-6.63-.13-7.14.15-14.29-.13-21.42-.15-3.91,1.06-5.14,5-5.09,16.61.21,33.21.09,49.82.09q1.69,14.63,3.4,29.24c1.15,3.86-.8,5.22-4.29,5.23q-24.36.07-48.7,0A5.48,5.48,0,0,1,386.3,385.31Z"/><path class="cls-91" d="M386.3,385.31c17.47,0,34.93-.07,52.4,0,2.8,0,5.05-.15,4.7-3.79,1.18,2.15.72,4.48.7,6.75q-26.72,0-53.44,0C388.64,388.23,386,389,386.3,385.31Z"/><path class="cls-92" d="M316.37,382.38c.53,3.16-.62,4.64-4,4.21a23,23,0,0,0-5,0c-2.8.26-3.4-1-3.08-3.54,1.73-13.36,3.35-26.72,5.07-40.08,0-.29-.78-1.93.84-1,.39.22.57.78.85,1.18Q313.72,362.77,316.37,382.38Z"/><path class="cls-93" d="M303.17,325.34c-1.75,14.48-3.51,29-5.39,44.51-1.62-6.5.28-12.19-1.33-17.6q0-8,0-16.05c.93-4.21-.29-8.54.67-12.75l.24-1.16C299.93,322,302,322.88,303.17,325.34Z"/><path class="cls-94" d="M333.82,267.14l4.34.79c-1.39,3-3.76,4.74-5.93,6.55-1.52,1.27-3.24,2.31-3,4.66-4.28-2.31-5-5.68-2.95-9.89A14.88,14.88,0,0,1,333.82,267.14Z"/><path class="cls-95" d="M303.17,325.34l-5.85-3c1.3-5.14,6.1-3.51,9.39-4.71,1.05-.38,1.37,1.17,1.38,2.18,0,1.83,0,3.66,0,5.49Z"/><path class="cls-90" d="M297.08,323.45c-.06,4.26.53,8.56-.67,12.76C296.2,331.93,295.57,327.63,297.08,323.45Z"/><path class="cls-42" d="M468.44,159.39c8.61-2.32,14.84-7.82,19.87-14.92,2.17-1.06,3.76.14,5.33,1.39,1.07,1.93,3.51,1.85,4.9,3.3-7.54.63-11.54,4.15-13.59,11.35-2.2,7.78-3.33,15.76-4.58,23.71-.36,2.29-1,5,.89,7.12-2.33,14-.84,12-12.7,7.65-2.15-.8-4.2-1.89-6.3-2.85-.66-5.66,1.27-11,2.1-16.5C465.4,172.85,466,165.93,468.44,159.39Z"/><path class="cls-96" d="M493.64,145.86c-2.12.84-3.6-.73-5.33-1.39-1-1.76-1.17-4.43-4.27-3.92-1.26-5.31-2.37-10.59,3.27-14.32a27.78,27.78,0,0,0,2.66,3C495.48,133.82,496,139.51,493.64,145.86Z"/><path class="cls-77" d="M406.05,159.09a11,11,0,0,0,10.11-2.75c4.13-2,6.06-.49,7.4,3.74,1.84,5.82,4.39,11.41,6.64,17.11a5.7,5.7,0,0,0-2,3.87c-.59,2.78-3.72,2.43-5.4,4.46,1.8.34,3.64-.66,5.1.54,1.44.45,2.85-.06,4.31-.45-1.13,7.68-.39,9.34,4.65,10.85.27,4,.71,8,0,12-4.27,2.24-8.61,4.35-12.78,6.75-2.27,1.31-3.39,1.17-4.39-1.45q-9.66-25.09-19.55-50.1c-.74-1.88-1-3.11,1.55-3.47A35.63,35.63,0,0,0,406.05,159.09Z"/><path class="cls-97" d="M429.28,240.45c-8.62,0-17.24-.2-25.85,0-3.23.06-4.45-.87-4.26-4.18a123.93,123.93,0,0,0,0-12.93c-.15-3.12.72-4.54,4.13-4.35,5.29.31,10.6.24,15.9.33.8,3.67,3.72,2.93,6.26,3,3.26.14,6.17-1.07,9.06-2.36A134.89,134.89,0,0,1,429.28,240.45Z"/><path class="cls-98" d="M459.24,211.15l1.17.9-2.58,32.71C456.88,233.47,457.82,222.3,459.24,211.15Z"/><path class="cls-23" d="M324,186.33,321,179.27c-1.13-4.66-2.81-9.23-2.61-14.15,1.13.1,2.28-.05,3,1.24,2.54,4.52,5.58,8.43,10.66,10.58,2.12.89,1,3.51.82,5.43-1.67,3.83-4.6,4.94-8.5,3.94Z"/><path class="cls-99" d="M358.28,180.5c-3.1,7.6-7.82,13.36-16.52,14.63.79-4.65,3.95-7.33,7.77-9.58,2.67-1.58,5.19-3.4,7.78-5.12A.55.55,0,0,1,358.28,180.5Z"/><path class="cls-96" d="M358.28,180.5l-.48-.1-.49,0c-2.52-3.24-2.46-7.11-2.15-10.82.34-4,3.33-5.29,7.06-5.11A30.17,30.17,0,0,1,358.28,180.5Z"/><path class="cls-50" d="M324.32,186.31c3-.87,6.13-1.64,8.5-3.94,1.23,3.58,4.82,5.52,6.26,9a52.13,52.13,0,0,1-8.06,2l-2.27-1.15C327.16,190.3,325.29,188.64,324.32,186.31Z"/><path class="cls-42" d="M331,193.32c2.28-2.28,4.77-3.75,8.06-2,.53,1.31,1.06,2.63,1.6,3.94C337,197,334,195.33,331,193.32Z"/><path class="cls-100" d="M321.56,151.15c1.76-3,4-3.12,7.22-1.57C326.15,151.76,323.78,151,321.56,151.15Z"/><path class="cls-101" d="M340,150.82c3.84-3,6-1.84,8.2-1.14l-.15,1.55Z"/><path class="cls-102" d="M443.31,176.22c2-.77,4-1.49,5.89-2.34,2.1-.93,3.6-.06,4.48,1.68,1.1,2.17-.45,3.32-2.21,4.09-1.48.65-3,1.14-4.56,1.7Z"/><path class="cls-103" d="M468.44,159.39l-6.18,36.75-1.26-.72q3.09-18.06,6.17-36.14Z"/><path class="cls-104" d="M427.92,186.06c-2.64.78-5.28,1.46-8.35.79,2-3.77,5.63-4.34,8.65-5.79,1.06.25,1.84.66.77,1.78C428.1,183.76,427.19,184.62,427.92,186.06Z"/><path class="cls-55" d="M248.12,261.37l-1,.15c-9.26-3.12-18.47-6.34-26.73-12.16,4.56.67,9.11,1.4,13.67,2a192.55,192.55,0,0,0,49,0c.22,3.28-5.43,2.51-4.62,6.65.1.56-2.1-1.93-4-2.07a10.52,10.52,0,0,0,.26,1.89c.43,1.26,1.26,2.89-.07,3.62-1.52.85-2.3-.92-2.84-2-1.47-3-3-2.74-5.71-1.15C260.55,261.53,254.09,260.25,248.12,261.37Z"/><path class="cls-105" d="M185.35,268l-3.06,1.2q-9.58-2.28-19.17-4.56c-1.79-.43-3.77-.76-2.9-3.44l23.22-2.16C184.08,262.07,184.72,265.05,185.35,268Z"/><path class="cls-28" d="M292.38,117.07a35.17,35.17,0,0,1-34.87,35c-18.86,0-34.93-16-35.12-35-.2-19.13,15.83-35,35.36-35A34.64,34.64,0,0,1,292.38,117.07Z"/><path class="cls-32" d="M387.06,48C387,66.47,371.37,82.07,352.9,82.08c-18.63,0-34.36-15.89-34.18-34.56s15.71-34.13,34.14-34.1C371.57,13.45,387.13,29.17,387.06,48Z"/><path class="cls-42" d="M330.38,195.33c7.93,3,8,3,4.51,11.09-1.58,3.64-3.58,7.09-5.39,10.63C330.55,209.84,330,202.56,330.38,195.33Z"/><path class="cls-23" d="M239.21,247.2a86.25,86.25,0,0,0,23-4.28c-4.14,4.26-8.51,7.3-15.11,5.68-4.2-1-8.8.57-13.07-1.08Z"/><path class="cls-106" d="M291.31,189.36c.07,4.2-2.62,7.23-6.43,7.25s-6.83-3.09-6.94-7.47c-.11-4.16,2.56-7.51,6.12-7.69C287.87,181.26,291.24,184.94,291.31,189.36Z"/><path class="cls-107" d="M149.43,303c15.77,3.6,31.86,4.14,47.91,5.28,8.27.59,9.16,1.88,7.06,10-4.82,18.64-11.53,36.64-18.62,55.64-.86-3.29.46-5,1.11-6.89,5.89-16.91,12.35-33.62,16.67-51.06,1-4-.06-5.52-4-5.83-10.91-.86-21.82-1.76-32.71-2.83-6.07-.6-12.2-1.14-17.85-3.81Z"/><path class="cls-108" d="M135.16,284.39l1.31-.06c-.8,9.77,4.46,15.35,13,18.68l-.44.51C139,301,135.3,296,135.16,284.39Z"/><path class="cls-109" d="M148.32,65.06l-.8,1.14c-1.09-3.71-2.18-7.42-3.48-11.8l-1.81,4.86c-1.83-3.34.91-6,1.42-9.2A52.59,52.59,0,0,1,148.32,65.06Z"/><path class="cls-110" d="M251.84,107.06c4.85-2.88,9.59-6,14.58-8.58a11.58,11.58,0,0,1,11.36,20.17c-4.64,2.91-9.48,5.49-14.23,8.21-1.89-.19-2.93-1.54-3.76-3-2.59-4.46-5.22-8.91-7.63-13.47A3.57,3.57,0,0,1,251.84,107.06Z"/><path class="cls-24" d="M251.84,107.06c3.8,6.66,7,13.66,11.71,19.8-4.62,2.61-9.19,5.29-13.85,7.82-6.48,3.52-13.26,2-16.46-3.66-3.39-6-1.39-12.58,5.16-16.45C242.82,112,247.36,109.56,251.84,107.06Z"/><path class="cls-111" d="M353.22,23.29c5.1,1.39,10.2,2.8,15.31,4.15,2.48.66,3.91,1.73,3.82,4.77-.24,7.8.2,15.62-.16,23.41-.33,7-3.37,12.67-10.09,15.88a61,61,0,0,0-6.39,3.83c-1.51,1-3,1.5-4.55.22a11.78,11.78,0,0,1,.21-2c1.06-3.29-.9-7,1.45-10.12a4.82,4.82,0,0,0,2.92-4.75c0-3.82,1.74-5.83,5.69-5.86,2,0,4.17-.18,4.14-3s-2.19-3-4.2-3c-4,0-5.67-2.12-5.63-5.91a4.81,4.81,0,0,0-3-4.71c-2.73-3.25-.91-7-1.14-10.54A2.77,2.77,0,0,1,353.22,23.29Z"/><path class="cls-112" d="M352.22,74.25l-1.06,1.3c-14.05-6.23-19.43-16.72-18.16-32.2,1.19-14.62.25-14.7,14.45-18.67,1.9-.53,3.84-.93,5.77-1.39l-1,1.92c-2.06,2.6-5.3,2.52-8.06,3.44-7.39,2.43-7.41,2.36-7.42,9.92,0,4,.23,8-.06,11.94-.62,8.32,2.41,14.46,9.81,18.55C348.69,70.3,351.29,71.43,352.22,74.25Z"/><path class="cls-32" d="M352.22,74.25c-3.47-2.22-7.06-4.28-10.38-6.69a15.35,15.35,0,0,1-6.6-12.74c-.1-7.29,0-14.58,0-21.87,0-1.62-.24-3.15,2.17-3.7,5-1.14,9.88-2.67,14.8-4,1.54,3.34.29,6.68,0,10-1.4,1.86-2.59,3.76-2.57,6.26,0,3.45-1.9,5-5.26,5.25-1.91.12-4.28-.09-4.4,2.81-.14,3.23,2.39,3.1,4.49,3.24,3.41.21,5.23,1.92,5.18,5.32,0,2.52,1.26,4.37,2.54,6.29C353.76,67.68,353.28,71,352.22,74.25Z"/><path class="cls-80" d="M352.2,64.4c-4.09.56-4.23-2.1-3.77-4.89.72-4.41-1-6-5.32-5.27-3.39.61-4.94-.31-4.88-4.35,0-3.85,1.27-5.15,4.82-4.46,4.92,1,5.92-1.59,5.34-5.73-.4-2.9.31-4.9,3.83-4.47,3.9-.32,5.88,1.09,5,5.33-.78,3.89.84,5.19,4.8,4.93,4.81-.32,6.77,2.82,5.13,7.42-.84,2.37-2.85,1.4-4.22,1.26-4.27-.42-6.74.66-5.72,5.51C358.16,64.06,355.54,64.6,352.2,64.4Z"/></g></g></svg>