<svg xmlns="http://www.w3.org/2000/svg" viewBox="0 0 544.29 439.28"><defs><style>.cls-1{fill:#2f0286;}.cls-2{fill:#8dd6e2;}.cls-3{fill:#8ed6e2;}.cls-4{fill:#2f0287;}.cls-5{fill:#26b6b6;}.cls-6{fill:#20b2c1;}.cls-7{fill:#50bdde;}.cls-8{fill:#41bad8;}.cls-9{fill:#39b6d5;}.cls-10{fill:#2eb4d5;}.cls-11{fill:#1aa2d1;}.cls-12{fill:#29b1d1;}.cls-13{fill:#27afd3;}.cls-14{fill:#fefefe;}.cls-15{fill:#b0e4fe;}.cls-16{fill:#72adfe;}.cls-17{fill:#eff5fc;}.cls-18{fill:#39b2d7;}.cls-19{fill:#2bafd2;}.cls-20{fill:#3dc887;}.cls-21{fill:#32c09c;}.cls-22{fill:#e3e4ed;}.cls-23{fill:#e2e4ed;}.cls-24{fill:#c1d8df;}.cls-25{fill:#0b5569;}.cls-26{fill:#f6dca7;}.cls-27{fill:#16abd3;}.cls-28{fill:#db880b;}.cls-29{fill:#f99a9b;}.cls-30{fill:#e3fbcf;}.cls-31{fill:#7dbdf3;}.cls-32{fill:#17abd3;}.cls-33{fill:#2f0386;}.cls-34{fill:#f99b05;}.cls-35{fill:#18a9d0;}.cls-36{fill:#dfe0df;}.cls-37{fill:#dfdfdf;}.cls-38{fill:#c8e0eb;}.cls-39{fill:#ef9897;}.cls-40{fill:#f1990e;}.cls-41{fill:#eb940b;}.cls-42{fill:#2ab1d5;}.cls-43{fill:#78e027;}.cls-44{fill:#3ebad8;}.cls-45{fill:#6dca27;}.cls-46{fill:#2fb3d5;}.cls-47{fill:#32b5d4;}.cls-48{fill:#28b1d3;}.cls-49{fill:#26b1d2;}.cls-50{fill:#1bafd2;}.cls-51{fill:#24b0d3;}.cls-52{fill:#6c7267;}.cls-53{fill:#6b7167;}.cls-54{fill:#fdfdfd;}.cls-55{fill:#e08b0c;}.cls-56{fill:#fafcfc;}.cls-57{fill:#3c263d;}.cls-58{fill:#441e47;}.cls-59{fill:#f9525b;}.cls-60{fill:#fa999b;}.cls-61{fill:#ef979b;}.cls-62{fill:#f2515c;}.cls-63{fill:#19abd2;}.cls-64{fill:#df8b0d;}.cls-65{fill:#54425a;}.cls-66{fill:#5b2f28;}.cls-67{fill:#2f0187;}.cls-68{fill:#b0e4fd;}.cls-69{fill:#72aefd;}.cls-70{fill:#f79b9d;}.cls-71{fill:#74affa;}.cls-72{fill:#898e9d;}.cls-73{fill:#676678;}.cls-74{fill:#666277;}.cls-75{fill:#5a677b;}.cls-76{fill:#f89b9c;}.cls-77{fill:#8097a9;}.cls-78{fill:#737787;}.cls-79{fill:#6e6c7d;}.cls-80{fill:#3b1f38;}.cls-81{fill:#3c2039;}.cls-82{fill:#3c1f38;}.cls-83{fill:#3e223b;}.cls-84{fill:#34344d;}.cls-85{fill:#fc9c02;}.cls-86{fill:#73aef8;}.cls-87{fill:#713d51;}.cls-88{fill:#ebcd9a;}.cls-89{fill:#7a5b47;}.cls-90{fill:#605062;}.cls-91{fill:#5b3124;}.cls-92{fill:#18576b;}.cls-93{fill:#1e6087;}.cls-94{fill:#592a3b;}.cls-95{fill:#fe9c01;}.cls-96{fill:#4b364d;}.cls-97{fill:#7c5029;}.cls-98{fill:#6f3b1d;}.cls-99{fill:#955717;}</style></defs><title>Recurso 8</title><g id="Capa_2" data-name="Capa 2"><g id="Capa_1-2" data-name="Capa 1"><path class="cls-1" d="M511.08,223.41c5.93,34.9,9,70,7,105.41-1.34,23.85-5,47.33-15.8,69.06-14.74,29.55-39.8,43.79-72.71,41.07-28.25-2.32-55.85-8.41-83.43-14.68a355.68,355.68,0,0,0-79.21-9c-22.64,0-45.14,3.1-67.69,5-26.72,2.19-53.4,4.25-80.25,1.66-28.21-2.72-49.23-16.79-65-39.68C38.21,359.12,30.06,333,24.44,306a317.11,317.11,0,0,1-3.73-106.79c4.32,2,4.29,6.08,4.91,9.88-.86,13.64-1.1,27.3-.84,41,.72,37.91,7.74,74.53,23.66,109.09C56.69,377.09,68,392.75,85,403.77c9.92,6.43,20.75,9.81,32.27,11.19,23.42,2.79,46.8,1.37,70.22-.45,18.25-1.43,36.45-3.3,54.72-4.56,8-.54,16-.63,23.9-1.53,7.12-.81,14.28.59,21.41,1,30.2,1.83,59.69,8,89.08,14.84a356.55,356.55,0,0,0,52.33,8c21.45,1.75,40.79-3.1,55.69-19.85,12-13.47,18.13-29.75,21.91-47.05,4.17-19.11,5.26-38.45,5.37-58,.14-24.59-2.72-48.82-5.54-73.12-.08-.65-.33-1.28-.4-1.95C506.25,228.52,507.18,225.11,511.08,223.41Z"/><path class="cls-2" d="M471.41,111.6c6.81,4.14,14.51,6.2,21.82,9.14,11.31,4.56,22.77,8.77,34.14,13.17,1,.4,2.28.62,2.86,1.8,7.46,3.63,9,12.55,4.87,20.27-8.08,15.28-14.87,31.2-22.81,46.55-7.25,14-13.58,28.51-20.8,42.55-1,1.92-1.38,4.64-4.43,4.74-3.47-4.66-1-9.22.5-13.62,2.75-8.18,7-15.74,10.64-23.53,8.61-17.24,17.28-34.46,25.57-51.87,2.78-5.85,2.33-7-3.55-9.2-16.62-6.29-33.21-12.69-49.69-19.36-1.53-.61-3-1.57-4.74-1.24-16.54-7.66-33.9-13.25-50.8-20-6.75-2.72-7.1-2.42-10.53,4.26a43.75,43.75,0,0,1-2.19,3.9C397.11,129.52,392,140,386.85,150.34c-.86,1.73-1.16,3.9-3.36,4.69a5.5,5.5,0,0,1-4.85-3.51,5,5,0,0,1,.63-3.35c7.11-15,14.34-30,22-44.76,5.22-10,15.11-13.61,25.72-9.7,9.52,3.51,19,7.09,28.42,10.89,1.95.79,3.89,2,6.18,1.15,2.26-1.44,4.11-2.22,4.69,1.66C466.7,110.07,469.89,110,471.41,111.6Z"/><path class="cls-3" d="M12.14,121.56C23,118.3,33.73,115,44.58,111.85a12.71,12.71,0,0,0,4.34-2.11c4.39-1,6.67-4.22,8.82-7.8,1.34-2.23,2-5.32,5.51-5.52a3.88,3.88,0,0,1,1.94,3.79c-.73,4.76,2,3.87,5.42,2.83a25.2,25.2,0,0,1-7.7-7.61,2.3,2.3,0,0,1,2.54-2.2c3.47,1,5.93,3.6,8.82,5.51a8.33,8.33,0,0,0,7.56,1c4.76-1.46,9.59-2.72,14.37-4.12,5.66-1.66,6.56-3,6.4-8.91-.06-2-1.36-5,1.75-5.28,2.86-.29,3.38,2.74,3.88,5,1.18,5.21,1.13,5.23,6.48,3.9,2.9-.73,5.8-1.47,8.71-2.15,9.31-2.16,17.85,1.27,21.57,10,4.23,9.9,7.5,20.23,10.84,30.49a2.79,2.79,0,0,1-.23,1.94c-3.85,1.09-6.55-.32-8.68-4.89-1.47-3.17-2.39-6.57-3.6-9.85-.68-1.88-1.38-3.76-2-5.66-1.17-3.71-3.41-5.16-7.19-3.77-9.65,1.82-18.87,5.18-28.28,7.83C77.88,122.1,50,130.37,22,138.1c-5.06,1.39-5.41,1.93-3.7,6.9,3.94,11.47,7.77,23,12.11,34.32,1,2.6,2.33,5.21,1.51,8.18-1.43,1.72-.87,4.75-3.65,5.6-2.29-.44-2.44-2.52-3.05-4.14-5.94-15.83-11.3-31.86-17.1-47.74C5.43,133.91,6.44,127.22,12.14,121.56Z"/><path class="cls-4" d="M65,93.6l-1.48,2c.22.51,0,.83-.5,1-2.86,3-4.61,6.81-6.79,10.29-1.74,2.79-4.05,4-7.28,2.87A209.62,209.62,0,0,1,63.26,87c.91-1.23,1.29-3.17,3.35-3.29,2.62,1.67,2.16-2,3.56-2-.72.57-1.52,1.58-2.9,1.12,3.33-7.21,9.2-12.44,14.52-18C107.33,38.17,139,22.08,174,11.72,199.66,4.12,225.93-.12,252.64,0,308.38.27,361.06,12.16,408.1,43.75c8.29,5.57,15.36,13.12,25.89,15.07-.18.39-.35.78-.52,1.18l-4.62-1.39c16.31,16,31.12,33.13,42.56,53-6-.62-6.42-1-6.65-6.51l-2.39,1.59c-1.7-.26-2.4-1.67-3.23-2.87a225.39,225.39,0,0,0-46.58-49.24,45,45,0,0,0-4.91-3.27C372.26,26.49,332.47,13.42,290,8.62,231.34,2,175.45,11.23,123.41,40.11c-.85.54-1.8.9-2.63,1.47A179.56,179.56,0,0,0,68.55,90.45C67.61,91.76,66.91,93.4,65,93.6Z"/><path class="cls-5" d="M487.26,249.74c6.57-10.81,11.23-22.57,16.87-33.84,9.74-19.47,19-39.19,28.87-58.58,4.21-8.22,4-15.15-2.77-21.61,13.25,3.46,17.35,12.18,11.37,24.44-9.19,18.82-18.48,37.58-27.68,56.4-1.09,2.22-1.9,4.57-2.84,6.86a20.14,20.14,0,0,0-3.94,7.9,26.84,26.84,0,0,1-2.87,8.36q-11.16,21.9-21.64,44.12c-1,2.17-1.73,4.75-4.49,5.61-2.85,0-3.82-1.69-3.61-4.17a15.17,15.17,0,0,0-1.17-7.24c-.29-1.92.49-3.59,1.31-5.23,3.27-6.54,6.52-13.09,9.82-19.62C485.16,251.82,485.76,250.4,487.26,249.74Z"/><path class="cls-6" d="M12.14,121.56c2.41.61.9,1.36.1,2.13a13.35,13.35,0,0,0-3.45,14.7c6.26,18.18,12.93,36.2,19.45,54.29a5.56,5.56,0,0,1,2.31,3.12C35.06,209,40.1,221.9,44.65,235a11,11,0,0,1,.67,4.89c-.88,2.25,0,4.46.13,6.69.15,3.19.53,6.71-3.83,7.77-2.24-.32-2.79-2.18-3.41-3.88C34,239.09,30,227.64,25.9,216.18c-.83-2.37-.92-4.89-1.39-7.33-.88-3.35-1.65-6.75-3.8-9.6-2.82-12.17-8-23.52-11.94-35.32-2.34-7.09-5.1-14-7.5-21.11C-2.25,132.42,1.61,125,12.14,121.56Z"/><path class="cls-7" d="M104.36,36.52c2,.79,6.06-1,6,1.95-.07,2.24-3.9.57-6.06.57a1.18,1.18,0,0,1-.49-.08c-1.89-.9-5.48,2.37-5.61-1.11C98.09,35.74,102.13,37,104.36,36.52Z"/><path class="cls-8" d="M59.56,71.59c.5,5.78.86,10,1.27,14.89C57.18,82.72,56.54,77,59.56,71.59Z"/><path class="cls-9" d="M68.76,53.14c-2.21,3.26-4.41,6.7-6.88,9.94-.39.51-1.51-.48-1.12-1.45a25.27,25.27,0,0,1,6.16-9.45C67.53,51.62,68.5,51.72,68.76,53.14Z"/><path class="cls-10" d="M463.85,94.16,458.8,81.51A11.22,11.22,0,0,1,463.85,94.16Z"/><path class="cls-11" d="M67.27,82.81c2.12-1.63,3.54-4.2,6.58-4.77-1.75,4-5.29,6.62-7.36,10.95-1.95-2.63,0-3.83.12-5.29Z"/><path class="cls-12" d="M75.67,44.6a21.16,21.16,0,0,1,11.69-5.23l.57,1.2L76.5,45.93Z"/><path class="cls-13" d="M452.92,73.31c-3.77-2-7.22-4.35-9.43-8.14A16.4,16.4,0,0,1,452.92,73.31Z"/><path class="cls-14" d="M24.51,208.85q8.21,22.47,16.4,44.94c2,1.07,2.39,3.12,3.07,5,9.5,25.74,18.37,51.7,27.75,77.48,4.21,11.56,8.18,23.21,12.38,34.77.68,1.88,1.51,3.72,1.21,5.79-.42,2.44-2.33,3-4.34,3.36-2.91.57-5.85,1-8.72,1.83-1.26.35-3,.6-3.12,2-.18,1.79,1.71,2.19,3,2.79a18.39,18.39,0,0,0,5.23,1.48c7.34,1,14.57,2.81,22,2.88a23.77,23.77,0,0,1,4.91.41A167.68,167.68,0,0,0,125.66,393c26.28.54,52.55.29,78.7-2.92a100.55,100.55,0,0,0,14.73-2.63c1.8-.49,4.66-.62,4.53-3-.13-2.18-2.9-2.42-4.79-2.87a181.94,181.94,0,0,0-20.66-3.4c-7.6-.9-15.29-.71-22.86-1.92a14.61,14.61,0,0,1-3.42-.61c-2-.83-2.15-1.9-.33-3.12a16.37,16.37,0,0,1,4.66-1.74c14-4.16,28.29-7.54,42.11-12.44,9.53-3.39,12.93-10,9.6-19.54q-2.33-6.6-4.51-13.24c-.61-1.87-1.46-3.76-.61-5.8,2.63-2.52,6-2.27,9.28-2.61,2.57-.26,5.39.09,7-2.66a5.26,5.26,0,0,1,3.21-2.22c2.72-.68,3.7-2.71,3.95-5.14,1.09-10.73,2.73-21.4,3.56-32.16.28-3.64-1.25-4.73-4.52-4.73a140,140,0,0,0-15.87,1.34c-5.6.66-11.23.54-16.83,1.33-7.1,1-9-.67-11-7.69a14.36,14.36,0,0,1-.7-5.4c.53-3.82,3.07-6.56,5.17-9.54,3.16-4.49,6.3-9,9-13.78a33.91,33.91,0,0,1,2.53-3.45c3.5-4.35,6.91-8.74,6.13-14.86,1.52-2.08,3.27-.75,4.89-.25,7.08,2.2,13.72,5.49,20.62,8.14,2.54-.28,3.76-2,4.35-4.22,2.66-9.76,3.53-19.64,1.45-29.63-.44-2.09-.87-4.54-4.1-3.59a14,14,0,0,0-5.42,2.57c-3.28,2.19-7.19,3-10.58,5a12.33,12.33,0,0,1-1.29.57c-3.86,1.18-7.41,3.21-11.36,4.14-1.66.07-3.21.73-4.85.94-.81.12-1.64.08-2.45.23-6.51,1.16-7.7,5.13-3.26,11,1.66,4.64-.64,9.21-.27,13.84a8.25,8.25,0,0,1-.63,2.86A69.06,69.06,0,0,1,202.22,240c-4.16,4-5.17,3.88-8.57-.61a17.77,17.77,0,0,1-2.71-4.75c-4-11.92-8.25-23.74-12.36-35.61.85-4.89,1.27-10,5.49-13.51,3.1-5.34.45-11.44,2.26-17,.61-1.86-2.4-2.37-3.32-3.92-2.65-4.5-6.58-6.19-11.77-5.51-3,.38-5.38-1.37-7.59-3.21-3.36-8.22-7.25-16.27-8.5-25.21-3.63-10.45-7.09-21-11-31.32a16.66,16.66,0,0,0-19.45-10.07c-5.15,1.21-10.27,2.56-15.38,3.94-2.23.6-3.22.34-2.43-2.29s.11-5.27-.87-7.77c-.31-.77-.9-1.48-1.88-1.23s-1,1.15-.81,2a26.2,26.2,0,0,1,.65,2.89c.58,5.85-1,8.24-6.54,9.87-5.23,1.54-10.52,2.92-15.71,4.62-3.21,1-5.8,1.09-8.48-1.49-2.46-2.39-5.52-4.17-8.32-6.22a177.07,177.07,0,0,1,55.22-53.07,4.72,4.72,0,0,1,2.86.32c2,.66,4.11.85,5.78,1.88-1.77-1.67-5.17-.55-6.55-3.36,20.56-12.66,43-20.85,66.31-26.29C253.72-2.13,316.88,3.89,377.72,32a197.86,197.86,0,0,1,32.06,19.1c-1.24,2.19-3.25,1.81-5.6,1.59-.21,0-.23-.07.24.07,2.73.8,5.57,0,8.31.66a201.8,201.8,0,0,1,49.64,53.27c-1.15,3.24-3.11.8-4.35.35q-14.92-5.44-29.71-11.28c-12.1-4.74-20.6-2-26.41,9.49-7.77,15.36-15.07,31-22.58,46.44.5,1.8-.48,3.24-1.18,4.72-7.24,15.33-15.32,30.25-22.3,45.72a6,6,0,0,1-2.49,3c-2.32.76-4.17-.52-6.06-1.45-7.24-3.57-14.41-7.28-21.7-10.73-3-.54-3.77,1.75-4.25,3.82-2.28,9.84-2.63,19.74-.07,29.61.53,2.05,1.13,4.36,4.15,4,4.92-.69,9.2-3.89,14.35-3.63,2.76.93,2.33,3,1.49,4.88-4.88,11.14-10.23,22-15.84,32.82-1.62,3.13-4.41,3.68-7.59,3.66-13.15-.06-26.3.17-39.45.13-7.52,0-8.25.84-6.95,8,1.72,9.5,3.95,18.9,5.9,28.36.88,4.26,7.42,9.35,11.78,9.55,3.11.14,6.36-.69,9.24,1.24,1.23,2.05.14,3.86-.68,5.65-1.44,3.18-3.16,6.24-4.6,9.42-4.73,10.45-2.19,17.19,8.35,21.6,15.65,6.55,31.51,12.61,47.36,18.66,2,.77,4.08,1.46,6,2.41,1.43.7,3.59,1.3,3.14,3.22s-2.67,1.8-4.27,1.74c-6.84-.27-13.6.86-20.41,1.19a191.3,191.3,0,0,0-28.19,3.58,27.19,27.19,0,0,0-6.15,2c-2,.95-1.91,2.09-.18,3.22a14.29,14.29,0,0,0,5.16,1.79c11.93,2.4,24,3.4,36.13,4.33,14.62,1.12,29.25.69,43.88.95,8.16.15,16.27-.55,24.41-1a84.66,84.66,0,0,0,14.14-1c8.93-.91,17.89-1.7,26.49-4.51,1.21-.4,3-.52,3.07-2.09.06-1.87-1.87-2.1-3.23-2.53a75,75,0,0,0-9.24-2.14c-2.33-.41-4.67-1-5.19-3.86,1-5.49,3.82-10.28,6.27-15.15,11.4-22.59,22-45.58,33.48-68.13,1.13-2.22,2-4.58,4.13-6.16q11.2-22.53,22.44-45.05c2.07-4.14,4.31-8.21,6.46-12.32a456.49,456.49,0,0,1,6.17,60.06c1.06,26.19.22,52.24-6,77.87a119.18,119.18,0,0,1-11.7,30.6c-14.53,25.74-37.07,36.34-65.86,34.1-28.09-2.19-55.47-8.64-82.93-14.64-37.78-8.24-75.93-11.09-114.59-7.14-30.61,3.12-61.28,6.44-92.13,5.95-17.34-.27-34.63-1.32-50.42-9.8-19.79-10.64-32.73-27.56-42-47.34C31.06,325.81,24.1,288.39,23.09,249.76A297.36,297.36,0,0,1,24.51,208.85Z"/><path class="cls-15" d="M487.26,249.74q-6.51,13.92-13,27.86c0,4-2.44,7.09-4,10.44-3.35,7.15-6.07,14.66-11.07,20.95-2.4,1-4.48,4.42-7.5,1.05.26-5.24,3.58-9.22,5.73-13.64,6-12.37,6-12.28,1-25.08-13.94-35.63-27.33-71.46-41-107.18-4.53-11.8-8.87-23.67-13.58-35.41-1.29-3.2-3-6.35-2.58-10,1-1.93,2.28-3.76,2.83-5.8,1.43-5.41,4.5-6,9.28-4.15,16.14,6.35,32.35,12.51,48.54,18.73a10.44,10.44,0,0,1,4.33,3.2c2,1,2.56,3,3.29,4.82,9.45,23.83,19.05,47.61,28.59,71.41a11.8,11.8,0,0,1,1.14,5.81c-.84,4.09-3.12,7.57-4.82,11.29-3.08,6.74-6.64,13.28-7.5,20.88A20.17,20.17,0,0,0,487.26,249.74Z"/><path class="cls-16" d="M401.18,118.71c5.68,14.54,11.43,29.05,17,43.63q18.92,49.32,37.73,98.7c2.49,6.51,5,13,7.64,19.47,1.18,2.92.49,5.45-.79,8.12-3.52,7.33-7.8,14.3-10.51,22-.93,5.27-2.28,10.32-7.18,13.47-3-1.14-2.86-4.24-4-6.52a113.76,113.76,0,0,1-4.46-10.55,77.76,77.76,0,0,1-9.6-33,5.2,5.2,0,0,1,.71-3.33c3.3-2.29,6.42-.11,9.53.53,5.32,1.09,5,1.09,5.59-4.09,1.77-14.66-4.89-26.92-10.74-39.39a194.1,194.1,0,0,1-13-37.66c-2.1-8.81-6.12-12.53-14.89-13.61-6.46-.8-13.06,3.14-16.72,9.65-1.72,3.06-1.68,6.83-4.1,9.56-2.73.19-3.09-2.08-3.74-3.82-1.69-4.5-3.43-9-5.32-13.39a10.62,10.62,0,0,1,.31-10c1.78-3.18,3-6.66,4.56-9.93.83-1.7,1.33-3.88,3.86-4q8.07-16.26,16.11-32.52C399.79,120.88,400.06,119.55,401.18,118.71Z"/><path class="cls-16" d="M499.18,212.73c-6.26-15.33-12.58-30.63-18.77-46-4.83-12-9.5-24-14.25-36.05.16-1.43.9-1.46,2.06-1,18.37,7.2,36.76,14.35,55.12,21.59,4.4,1.73,5,3.79,2.6,8.67-4.36,8.93-8.7,17.87-13.25,26.7S504.48,204.45,499.18,212.73Z"/><path class="cls-15" d="M383.11,154.57c-3.69,5.32-5.21,11.7-8.44,17.25a3.69,3.69,0,0,0-.12,3.35q4.23,10.25,8.5,20.47c2,1.76,1.82,4.08,1,6.14-.93,2.37.86.16.93.67,3.41,3.2,3.78,7.81,5.5,11.79-.06,6.18,1.74,12.25,1,18.46-2.94,6.88-8.43,11.66-13.76,16.55-1.32,1.21-3.28,1.64-4.48.2-4.15-4.94-10.07-8.79-10.39-16.19-.26-3.69-.06-7.43-1.28-11-.07-1.56,1.05-2.31,2.12-3.1,2.17-1.59,3.45-3.64,2.67-6.39s-3.18-3.55-5.79-3.75a17,17,0,0,1-2.46-.29c-2-.89-4.59-1-4.87-3.93q12.17-25.32,24.36-50.64a19.26,19.26,0,0,1,1.7-2.46Z"/><path class="cls-17" d="M498.88,130.67c-1.11,1.63-2.54.59-3.78.12q-14.21-5.43-28.38-10.93c-5.9-2.28-11.8-4.53-17.68-6.84-1.17-.46-3-.9-2.31-2.6.55-1.34,2-.5,3.07-.09q23.28,9,46.54,17.94C497.39,128.68,498.6,129,498.88,130.67Z"/><path class="cls-15" d="M155.15,130.68c3.81,8,6.46,16.47,9.06,24.93-1.16,2.25-4.14,2.38-5.35,4.31-2.57,4.12-8.92,6.58-5.52,13.5,1.18,2.41-.06,5.58-1.85,8-1.09,1.57-.8,3.59-1.71,5.22-15.72,18.26-30.77,37.1-46.26,55.55C93,254.66,82.83,267.36,72.29,279.78c-1.85,2.18-3.17,4.65-4.81,6.93-3,.23-3.24-2.22-4-4.14-1.91-5.11-3.74-10.26-6.72-14.9-.87-1.35-1.38-3.12-3.54-2.91-4.77-7.8-7.19-16.43-9-25.28-3-10.84-7.29-21.26-11.07-31.85-1.77-4.94-3.33-10-5-14.95,2-1.1-.31-4.72,3-5,3.37,1.59,3.29,5.14,4.47,8,.58,1.38.77,2.9,1.29,4.3,1.48,4,2.57,4.23,5.34,1,8.11-9.48,17.46-17.79,25.63-27.22,1.37-1.59,2.73-4.05,5.69-2.93a11.91,11.91,0,0,1,2,4.5c1.78,5.45,3.3,6.12,8.68,3.74.61-.27,1.15-.67,1.74-1,3-1.06,6.25-.86,9.28-1.83s6.16-1.22,9.53-2.73c-2.75-2.26-2.59-3.88.22-5.82s3-7.07.63-11.46c-1.71-3.18-4.32-1.38-6.6-1.06-2.11.3-4.21,1.22-6.24-.26a9,9,0,0,1-1.43-6.45c9-9,17.89-18.16,26.56-27.52,5-5.44,9.64-11.42,16.21-15.25,4.51-2.83,5.64-2.59,7.6,2.36s3.61,10.28,5.5,15.39C148.73,127.07,150.6,130.35,155.15,130.68Z"/><path class="cls-16" d="M72.9,170.57q-15.08,16-30.13,32c-3.9,4.17-4.7,4.14-6.7-1.31-1.66-4.5-2.56-9.27-4.84-13.56-1.15-7.79-5.14-14.64-7.31-22.12a231.75,231.75,0,0,0-7.87-22c-1.59-3.93-.26-5.59,3.37-6.4,16.82-3.8,33.14-9.36,49.74-14,20.24-5.62,40.37-11.64,60.56-17.44,1.45-.42,3-1.9,4.54-.06q-13.83,14.59-27.66,29.2-5.28,5.6-10.44,11.29c-1.31,1.46-2.57,2.63-4.6,1.27-1.2-.13-1.77-1.15-2.6-1.78-3.46-.26-1.44,2.26-1.45,3.29,0,5.71-.74,11-6.15,14.4a7.48,7.48,0,0,1-2,.62C74.45,163.46,74.21,167.55,72.9,170.57Z"/><path class="cls-17" d="M101.75,103.69c-7,3.91-14.07,4.69-20.63,6.79-9.94,3.17-20,5.84-30.07,8.69-1.48.42-3.67,1.57-4.16-.66-.4-1.84,2-1.66,3.36-2.05q22.92-6.63,45.83-13.25A6.47,6.47,0,0,1,101.75,103.69Z"/><path class="cls-14" d="M63,96.58l.5-1,8.94,7.63c-1.11,1.48-2.91,1.31-4.39,1.87-3.34,1.26-5.27.54-4.16-3.47A5.39,5.39,0,0,0,63,96.58Z"/><path class="cls-18" d="M412.73,53.41c-4.8,2.56-9.5-.26-14.3-.08,3.34-3.44,7.8-.28,11.34-2.24Z"/><path class="cls-19" d="M122.28,39.37C126,40.55,130,41.14,133.05,44a23.51,23.51,0,0,1-12.86-3.47Z"/><path class="cls-20" d="M458.27,308.72c6.18-9.93,10-21.09,16-31.12,1.82,2.35,2.62,4.9,1.58,7.84-.8,2.28.54,3,2.43,3.24q-13.83,28.63-27.66,57.25-7.68,15.88-15.39,31.75c-1.63,7.38-3.93,14.27-12.2,16.84-4.73,1.84-9.59,1.75-14.5,1-1.79-.7-4-.37-5.45-2,.94-2.37,3-2.06,4.72-2.2a15.25,15.25,0,0,0,13-8.87c7.73-15.29,15.4-30.61,22.84-46.05C448.11,327,451.73,317.06,458.27,308.72Z"/><path class="cls-21" d="M44.29,239.48c4.22,8.05,5.55,17.24,9.88,25.25C56,266,56.28,268.05,57,269.89q19.13,52.62,37.51,105.49c2.08,6,5.47,10.59,11.87,12.47,1.64.48,4.25.49,4.12,2.84-.16,2.88-3.18,1.55-4.82,2.36a1.54,1.54,0,0,1-1.4-.3l-4.86-.18c-10.09-2-14.15-6.32-15.05-16.07Q73.13,344.75,61.93,313q-10.47-29.62-21-59.22c4.41-1.46,3.54-5.13,3-8.19C43.51,243.41,43.09,241.47,44.29,239.48Z"/><path class="cls-22" d="M104.23,392.75l5.46-1.71c-10.76-2-14.6-9.64-17.77-18.8-12-34.65-24.51-69.14-36.8-103.7a37.87,37.87,0,0,1-.95-3.81c.83-2.89,1.9-.76,2.44,0,3.65,5.31,6,11.27,8.13,17.28A24.39,24.39,0,0,0,67,286.72c2.13.91,2.49,3,3.16,4.83,4.89,13.44,9.57,27,14.45,40.41,2.19,7.67,5.14,15.08,7.81,22.59,1.8,5.08,2.87,5.74,8.15,4.47A82.69,82.69,0,0,0,113,355.25c22.61-6.76,45.32-13.21,68-19.8C191,332.72,201.07,330,211.06,327c3.08-.92,5.72-1.88,6.46-5.84.59-3.23,3.18-3.32,5.71-1.5,2.37,7.25,5,14.44,7.05,21.77,2.27,8-2.53,15.59-10.46,18.16-15.28,5-30.78,9.15-46.26,13.43a29.72,29.72,0,0,0-3,1.31c9.78.81,18.72,1.56,27.66,2.28a130,130,0,0,1,22.95,3.89c2.39.63,5.48,1.27,5.55,4.16s-3.15,3.05-5.25,3.73c-8.25,2.68-16.89,3.31-25.42,4.16-23.67,2.37-47.45,2.52-71.19,1.91C118,394.32,111,394.46,104.23,392.75Z"/><path class="cls-23" d="M458.27,308.72q-13.56,28.06-27.13,56.13-3.81,7.86-7.74,15.66c-4.76,9.44-8.29,11.74-19.32,12.48l4.41,2.5c-18.91,2.2-37.91,1.54-56.83.94-16.82-.54-33.75-1.43-50.25-5.53-1.45-.36-2.92-.5-4.14-1.54s-3.25-1.42-2.84-3.61c.34-1.87,2.07-1.74,3.46-2.25,12-4.38,24.6-4.84,37.13-5.86,7.34-.6,14.68-1.35,22.27-2-9.53-3.67-19.07-7.29-28.57-11-10.19-4-20.4-7.93-30.48-12.18-8.58-3.62-11.32-12.11-7.26-21.31,2.28-5.16,5.54-9.86,7.14-15.34,3.59-3,5.34-.28,7.15,2.27,6.07,4.27,13.29,5.88,20,8.56,19.1,7.6,38.34,14.85,57.4,22.55,11.76,4.13,23.27,8.92,34.92,13.33,6,2.25,7,2.06,9.54-3.86,4.45-10.22,9.66-20.05,14.56-30,.87-1.77,1.51-3.74,3.43-4.77,3.25-3.93,4.2-9.11,7.14-13.22C454.77,311.55,455.85,308,458.27,308.72Z"/><path class="cls-24" d="M304.1,319.69c-.92-2.94-2.5-4.87-6-3.86-2.83,0-5.66,0-8.49-.12-2.48-.13-5.88,1.37-6.26-3.14,0-.29-.81-.77-1.2-.74-6,.56-5.91-4.13-6.71-7.88-2.08-9.71-4-19.45-6-29.19-1.35-6.65-.19-8.1,6.48-8.09,13.83,0,27.66-.16,41.48.15,4.17.1,6.21-1.33,7.88-5,4.6-10.12,9.64-20,14.39-30.1.58-1.23,3.13-3.16-.48-4.08,3.06-3.77,7.17-4.71,11.76-4.39,1.38,2.52-.36,4.35-1.38,6.35-1.82-1-1.8-1-2.66,1.12-1.73,4.3-4.63,8.07-5.64,12.69-2.76,6-5.73,12-8.56,18-1.41,3-1.22,4.81,2.55,4.84,4.61,0,6.2,2.92,7.06,6.89,1.75,8.11,2.69,16.39,4.88,24.41.88,3.84,1.06,7.86,2.87,11.46,3.34,3,7.45,2,11.3,2.2a36.81,36.81,0,0,0,5.93-.22,11.08,11.08,0,0,1,7.23.56c1.65.66,3,1.64,1.43,3.66-3.82,1.69-7.86.66-11.8.9-5.46.32-11-.56-16.38.58a11.73,11.73,0,0,1-1.75.42c-11.39.43-22.79.17-34.18.14C308.91,317.22,306.27,317.56,304.1,319.69Z"/><path class="cls-24" d="M202.07,258.52a12.22,12.22,0,0,0,.15,3c3.32,11,1.49,10.86,13.43,9.61,10.69-1.11,21.44-1.72,32.17-2.47,3-.22,4.41.73,3.92,4.41-1.46,10.81-2.34,21.69-3.59,32.53-.45,4-.13,8.78-6.49,8.29-1-.08-1.21,1-1.44,1.78-9.06.73-18.07,2.13-27.14,2.51s-17.82,1.48-26.7,2.47a9.55,9.55,0,0,0-6.59,3.06,3.07,3.07,0,0,1-2.38.58c-3.7-2.18-7.47.14-11.23-.11-4.46-.31-8.86,1.39-13.38,1-1.88-.18-2.86,1.56-4.45,2-2.25-.53-2.32-2.18-1.79-3.88.63-2,2.39-2.79,4.29-2.89,4.82-.23,9.57-1.17,14.4-1.26,2,0,4,.06,5.87-.77,5.35-5,4.69-11.55,4.69-17.95,2.79-5.7,2.25-12,2.88-18,.86-8.19,1.88-9.47,10.25-10.1,2.94-.22,6.53.55,8.44-1.92s-1.57-5.19-.88-8C197.55,259.83,199.31,258.43,202.07,258.52Z"/><path class="cls-25" d="M351.48,223.5a64.46,64.46,0,0,0-12.3,4.13l-13.89,4.3c-1.61-2.21-.65-4.54-.09-6.71.85-3.25.73-5.91-1.58-8.78a9.13,9.13,0,0,1-.28-11.24c2.23-3.17,3-6.1,2-9.72a3.54,3.54,0,0,1,.8-3.72l27.12,13,4.94,3c5,1.06,4.56,4.91,4.37,8.62a12.06,12.06,0,0,1-1.75,5.14C358,223.58,354.79,223.77,351.48,223.5Z"/><path class="cls-26" d="M290.18,117.78c0-5.65.14-11.31-.1-17-.16-3.62.6-5.08,4.78-5.45,6.8-.6,13.6-.42,20.38-.92.46-.69.92-1.39,1.86-.6,2,1.14,2.13,3,2.14,5.09,0,5.91-.4,11.85,1,17.69,2.81,5.83,2,8.47-4,12.56-12.93,7.48-9.19,6.74-21.28.3-1.6-.86-3.35-1.53-4.38-3.17C289.48,123.52,288.91,120.69,290.18,117.78Z"/><path class="cls-27" d="M202.07,258.52q-2.41,1.56-4.84,3.11c-2.22,1.82-4.32.65-5.82-.81-6.54-6.34-13.22-12.61-17.79-20.67a100,100,0,0,1,3.89-20c2.4-2,3.58.56,5.22,1.42a102.48,102.48,0,0,1,9.35,13.29c5.45,8.19,5.43,8.17,11.86,1.23,2-2.17,4.14-4.24,6.21-6.36,2.74,1.42,3.54,4.77,6.23,6.24-1.45,5.45-5.76,9.17-8.46,13.87C206.19,252.86,204,255.64,202.07,258.52Z"/><path class="cls-28" d="M150.18,180.89c2.57-2.51,1.93-5.78,2.09-8.86s-3.24-1.31-4.48-3.3c7.15-2.33,8.18-12,16.42-13.12,3.31,1.37,6.4,2.75,10.35,1.79s6.41,2.13,8.42,5.08c1.71,2.51,3.35,5,7.39,5-4.59,1.52-4.13,4.27-3.24,7.66,1.05,4-.6,7.85-2,11.58-3-3.63-8.64-4.35-11.62-9.07a15.16,15.16,0,0,0-3.84,2.78,4,4,0,0,1-3.67.85c-1.28-.24-1-3.46-3.26-1.54a7.69,7.69,0,0,0-3.05,4.93c-.11,1-.06,2-.25,3-.23,1.25-.13,2.9-1.87,3.06a3,3,0,0,1-3-2.25C153.7,185.57,151.29,183.62,150.18,180.89Z"/><path class="cls-29" d="M150.18,180.89c5.39.68,3.71,6.91,8.14,9.83-1.26-7.15.8-12.15,7.46-14.34,1.61,1.19-1.69,3.11.33,4.14s2.48-1.5,3.78-2.2a17.92,17.92,0,0,0,3.31-2.19c1.3-1.12,2.06-1.7,3.46.19,1.91,2.59-.78,2.18-2.52,3,5.59.74,8.84,3.3,11,7.41-3.89,3-3.72,8-5.93,11.81-.43,2.75-2.74,3.69-4.75,4.93a14.62,14.62,0,0,0-9.39,7.34c-2,2.4-4.14,5.38-7.58,4.23-4-1.35-5.7-5.05-6.12-9.2a5.88,5.88,0,0,1,.36-1.43c1-2.59,3.73-4.52,3.57-7.5-.16-3.15-3.8-3.36-5.37-5.42-1.17-1.53-2.08-3-.94-4.95C149.48,184.69,148.58,182.52,150.18,180.89Z"/><path class="cls-30" d="M245.22,190.57c.79-2.64,3.16-2.38,5.16-2.81.72,3.59-1.75,6.79-1.29,10.35a12.38,12.38,0,0,1-.91,3.65c-1,7.63-1.18,15.21,1.25,22.65a5,5,0,0,1-.05,3.18c-7.55-3-15.12-5.93-22.64-9-1-.39-1.7-1-2.57,0-2.86.53-4.69-1.49-6.83-2.75-4.66-5.92-4.69-9.62-.16-15.13l5.09-1c4.46,0,8-2.6,12-4.11l-.09.06C237.78,193.83,242,193.2,245.22,190.57Z"/><path class="cls-31" d="M179.11,324.14c-.09-2.82.61-4.26,4.07-4.66,10.67-1.24,21.28-2.67,32-2.89,6.58-.13,13-2,19.69-1.91,1.84,0,3.65,0,5.3,1-.37,3.11-3.08,2.5-4.91,2.79-4,.64-8.05.87-12.08,1.26-2.33.18-6-1.41-4.44,3.69.53,1.76-.83,3-2.68,3.54-11.52,3.58-23.09,7-34.82,9.82C179.29,332.77,176.85,328.86,179.11,324.14Z"/><path class="cls-32" d="M290.18,117.78l.81,8.07c4,3.93,9.14,6,14.07,8.35,2.19,1,3.49-1.36,5.18-2.18a12.52,12.52,0,0,0,5-3.85c6.12-1.92,4.68-7.1,4.95-11.53,2.26-.38,3.29.43,3.35,2.87.17,6.63.48,13.25.83,19.87.13,2.38-.87,3.17-3.17,3.24-10.11.3-20.21.66-30.3,1.16-2.59.12-3.53-.74-3.58-3.32q-.19-9.69-.74-19.36C286.44,118.3,287.82,117.62,290.18,117.78Z"/><path class="cls-33" d="M141.3,41.14c0-.16,0-.37.14-.48,5.73-5.88,5.74-5.88,10.71.32,6.2,7.73,12.39,15.47,19.16,23.94l-10.13-1.81c-5.52-2.58-11.68-2.84-17.37-4.76-2.6-.87-5.64-.82-7.5-3.36l-8.5-2.76c3.14-2.94,6-5.54,8.79-8.3,1.19-1.2,2.22-1,3.45-.32,4.17.35,6.28,4,9.09,5.62C146.89,46.64,142.75,45.21,141.3,41.14Z"/><path class="cls-34" d="M249.38,227.59l-.93-2.13c.08-3.89-2.4-7.39-1.69-11.37a2.81,2.81,0,0,1,.37-.91c5.9-7.29,5.9-7.29,1-15.28-1.28-3.84,1.24-6.83,2.28-10.14,2.83-3,4.76-1.77,5.57,1.54a61.79,61.79,0,0,1-1.77,35.24C253.47,226.6,252.24,228.57,249.38,227.59Z"/><path class="cls-35" d="M326.14,191.76a65.32,65.32,0,0,0,1.08,6.84c.63,2.48.39,4.06-1.91,5.87-3.21,2.52-3.56,9.49-.4,11.65,3.59,2.46,2.77,5.07,2,8.14-.61,2.54-1.12,5.11-1.67,7.67-2.92,1.81-4.08-.57-4.64-2.45a59.32,59.32,0,0,1,.34-36.19C321.84,190.73,323.52,189.24,326.14,191.76Z"/><path class="cls-36" d="M423,394.52c6.68-3.72,8.85-10.71,12.2-16.84.62,2.77,2.88,2.68,5,3a45.58,45.58,0,0,1,12.37,3.22c1.17.55,2.44,1.44,2.2,3a3.47,3.47,0,0,1-2.71,2.62A124.77,124.77,0,0,1,423,394.52Z"/><path class="cls-37" d="M84.32,376.5c2.43,7.78,6.82,13.72,15.05,16.07-9.89-.78-19.81-1.49-29.22-5-1.62-.6-3.88-1.16-3.74-3.47.15-2.49,2.49-2.91,4.39-3.36,3.37-.81,6.78-1.52,10.21-2.05C82.57,378.47,84.05,378.5,84.32,376.5Z"/><path class="cls-38" d="M174.27,202.37l4.9-3.82c2.94,3.4,3.48,7.85,4.81,11.86,2.69,8.16,6.36,16,8.1,24.46a59,59,0,0,1-9.76-12.26C178.47,216.33,176.63,209.25,174.27,202.37Z"/><path class="cls-39" d="M218,215.52c2.38.38,4.27,1.71,6.15,3.08,2.87,4.2.17,7.29-2,10.53-1.1,1.6-2,3.35-3.61,4.53-2.64-1.85-1-4.42-1.12-6.9-2.25-.83-4.69,1.21-6.92-.23-.69-4.3.93-8.43,1-12.68C214.15,212.33,215.88,214.77,218,215.52Z"/><path class="cls-40" d="M218,215.52c-2.47.51-4.59-.35-6.6-1.67-3.39-2-5-4.77-3.6-8.62,1.61-4.42,5.43-4.69,9.36-4.51C215.27,205.78,213.87,210.81,218,215.52Z"/><path class="cls-41" d="M210.48,226.53c2.8-1.81,6.38-.42,9.25-2.67-1,3.48-2.1,6.53-1.21,9.81a3.41,3.41,0,0,1-2.14,2.31c-5,.82-4.82-3.5-6.23-6.24Z"/><path class="cls-42" d="M367.58,64.72c-2.24,1.84-4.52,3.62-6.7,5.53-2,1.77-1.87,3,1.05,3.27,2.54.26,5.12.49,7.86,2.93-4.85.81-8.55-.93-12.35-1.3-2-.19-1.37-2-.77-3.15a23.06,23.06,0,0,1,9-9.19Z"/><path class="cls-43" d="M136.31,55c7.4,2.14,14.8,4.26,22.19,6.43,1,.3,2.4.15,2.68,1.69-7.61-1.5-15.21-3.09-22.85-4.45C135.77,58.21,135.27,57.16,136.31,55Z"/><path class="cls-44" d="M82.08,74.82c5.31-3.41,9.32-1.66,13.28-.94a1.87,1.87,0,0,1,1.1,1.38,1.05,1.05,0,0,1-1.37,1C91.34,75.08,87.31,75.87,82.08,74.82Z"/><path class="cls-45" d="M141.3,41.14l12.19,10.69-.82,1.1-12.62-9.32Z"/><path class="cls-10" d="M375,110.25c4.8-3.09,7.51-6.32,10.49-9.8C385.85,105.67,381.5,110.06,375,110.25Z"/><path class="cls-46" d="M332.69,79.91c2.18-3.19,9.89-6.78,11.89-6a1.5,1.5,0,0,1,.88,1,1.36,1.36,0,0,1-.65,1.14C341,77.26,337.21,78.46,332.69,79.91Z"/><path class="cls-47" d="M378.43,81.06c4.6.83,6.85,4.22,8.62,8.09a1,1,0,0,1-.67,1.54,1.45,1.45,0,0,1-1.25-.47C383.48,86.77,380.44,84.41,378.43,81.06Z"/><path class="cls-48" d="M355.75,104.56a68.24,68.24,0,0,0,11.88,7.17C361.57,112.38,357.82,110,355.75,104.56Z"/><path class="cls-49" d="M387.78,54.12c-3.71,2.68-8,3.36-12.42,3.92A16.16,16.16,0,0,1,387.78,54.12Z"/><path class="cls-50" d="M352.73,82.13c-.36,4.14-.61,8.31-.57,13C349.26,91.64,349.44,86.23,352.73,82.13Z"/><path class="cls-51" d="M317.1,93.86l-1.86.6c-1.27-1.09-.59-1.92.33-2.78,2.65-2.5,4.5-6,9.08-7.48C322.93,88.75,318.81,90.39,317.1,93.86Z"/><path class="cls-52" d="M234.24,195.6c-3.84,3.44-9,4-13.3,6.52-.67-1.93,1.33-1.4,1.33-2.41C226.45,198.89,229.82,195.73,234.24,195.6Z"/><path class="cls-53" d="M245.22,190.57c-2.92,3.39-6.92,4.4-11.07,5.09C237.31,192.8,241.44,192.08,245.22,190.57Z"/><path class="cls-54" d="M449.43,152.68c1.87,1.52,4.1,1,6.22,1.06,7.41.25,10.05,4,6.93,10.78-1.13,2.44-1,7-6,5.93-.27-.06-.91.54-1,.92s.42.77.68,1.14c.67.92,3.23-1.44,2.64,1.34-.41,2-2.14,2.77-4.19,2.8-6,.08-11.89.07-17.77-1.1-2.2-5.54-1.71-11.06.1-16.58,5.05-3.76,5.85-9.52,7.15-15.06.71-3,.81-3,3.1-1.39C449.64,145.57,447.61,149.53,449.43,152.68Z"/><path class="cls-55" d="M437.05,159q0,8.29-.1,16.58c-2.68,2-5.75,1-8.65,1-2,0-2.2-1.67-2.23-3.2,0-3.14,0-6.29,0-9.43,0-6.39,0-6.45,6.28-6.28,1.26,0,2.69-.45,3.64.91-1.88,1.14-.83,2.87-.81,4.18.33-1.15-.42-2.85,1.13-3.85A6.64,6.64,0,0,1,437.05,159Z"/><path class="cls-56" d="M413.68,117c1.36-.13,7.43,4.57,7.44,5.44s-5.48,7.09-6.38,7.15c-1.2.08-6.76-5.11-6.38-6.26C409.31,120.42,411.93,118.86,413.68,117Z"/><path class="cls-57" d="M449.43,152.68c-.6,1-.44,2.6-2.93,3,2.35-4.53,1.24-8.85.8-13.18C450.73,145.34,449.26,149.18,449.43,152.68Z"/><path class="cls-27" d="M364.13,232.75c-.93,5.18,3.33,7.69,5.86,11,5.12,6.65,5.31,6.58,11,.56,3.18-3.38,6.2-6.91,9.29-10.38,2.91-4.41,5.14-9.52,11.12-10.77,3.1,1.87,1.72,4.54,1.23,7-.28,1.41-1.45,3.15-.05,4.16,1.71,1.25,2.92-.73,4.29-1.52,4.62-2.7,7.12-7,9-11.8,6.06.54,13.41,7.06,15.11,14,3,12.1.94,23.94-2.46,35.65.28,12.69,3.1,24.7,9.49,35.78-3.26,3.44-7.78,3.42-11.94,4a145.72,145.72,0,0,1-23.7,1.83c-2.84-.07-5.65-.25-7.84-2.43-2.07-4,.37-7.74.58-11.61.17-3.09,2.27-7.14-.12-9-2.22-1.68-5.24,1.75-7.78,3.06-7.66,3.95-15.12,8.3-22.76,12.32-1.49.57-3,1.19-4.51.14a11.74,11.74,0,0,1-1.79-7.64,8.27,8.27,0,0,1,2.25-4c7.47-6.34,14.66-13,22.12-19.34a20.21,20.21,0,0,0,3.85-3.88,2.66,2.66,0,0,0-.15-3.65c-1.2-1.13-2.13,0-3,.75-1.89,1.65-3.74,3.44-6.44,3.46a8.27,8.27,0,0,1-7.25-3.71c-4.71-7-8.95-14.39-13.12-21.77-.48-.85-.85-1.84,0-2.77,5.37-1,5.13-5.75,6.49-9.47A.93.93,0,0,1,364.13,232.75Z"/><path class="cls-58" d="M394.6,308.61c5.68,3.56,11.92,1.82,17.9,1.62A114.58,114.58,0,0,0,438,306.41l7.17,17.46c-5.65,13.44-12.7,26.2-18.91,39.36-1.45,3.07-3.57,2.73-6.19,1.71-12.64-4.93-25.32-9.75-38-14.62a6.42,6.42,0,0,1-1.09-3,167,167,0,0,1,10.74-35.53C392.26,310.41,392.93,309,394.6,308.61Z"/><path class="cls-59" d="M428.48,270.63c-.37-5.88,1.09-11.57,1.9-17.31.72-5.19.25-10.31-.12-15.42-.53-7.12-7.93-14.8-14.88-16.07-2.67-3.08-2.92-6.94-3.22-10.7-.21-2.59,1.52-4.29,3.61-5.56,2.25-1.37,3.88-3.12,3.8-6.47a24.56,24.56,0,0,1-5.57,5.84c-3.38,2.26-5,1.75-6.21-2.12-.76-2.36-1.88-4.67-1.87-7.21,0-3.06-1.33-3.69-4.32-3.74-6.77-.13-10.47,4.64-14.87,8.37-.86.73-1.43,1.83-2.42,2.48a3.79,3.79,0,0,1-.17,1c-.45,1.1-.8.69-.84-.14-.13-2.63-.18-5.27-.25-7.91,1.89-9.41,5.33-17.69,15.89-20.16s19.11,3.31,21.42,13.81c3.72,17,10.2,33,18,48.44,5.48,10.83,6.72,22,6.09,33.83-.16,2.94-1.33,2.77-3.43,2.2C436.86,272.63,432.66,271.66,428.48,270.63Z"/><path class="cls-60" d="M384.31,202.72c.34-3.31,2.93-4.69,5.08-6.79,4.19-4.09,9-5.31,14.44-5.76,2.31-.19,3.83-.21,3.3,2.47-.8,4.06,1.66,7.38,2.16,11.12.39,2.91,2.21,1.3,3.25.67,3.21-1.91,5.3-4.92,7.12-8.24,2.32,4,1.88,8.32-1.76,9.76-5.21,2.05-5.09,5.27-3.74,9.54a53.36,53.36,0,0,1,1.22,6.34c1.12,2.86.16,5.08-2.06,7-2.62,2.28-5.16,4.66-7.77,7-1.34,1.19-3.06,1.75-4.6.9-1.93-1.06-.78-2.93-.49-4.47.55-2.91,3.28-5.6.86-8.81-1.29-1.82-3.26-2.58-5.16-3.53-2.77-1.38-5.51-2.89-6.76-6C386.72,210.59,386.93,206,384.31,202.72Z"/><path class="cls-61" d="M364.13,232.75a2.29,2.29,0,0,0-.78.14c-2.6,1.67-4.93.36-7.34-.63.92,2.85,1.76,5.69-3.06,5.14-2.57-1.94-4.77-4.06-3.91-7.74-.16-2.44,1-4.35,2.44-6.16a10.66,10.66,0,0,1,8.76-1.24,1.75,1.75,0,0,1,2.07.16C365.67,225.38,363.12,229.38,364.13,232.75Z"/><path class="cls-62" d="M389.4,213.85c3.13,2.38,6,5.1,10.15,5.8,2.18.37,2.4,1.93,1.77,3.76-4.68,2.44-7,7.36-11.05,10.48C390.33,227.2,388.52,220.58,389.4,213.85Z"/><path class="cls-63" d="M362.31,222.42l-2.07-.16c-.64-2.43,1.14-4.42,1.19-6.79.06-3.13-.17-6-3.23-7.7,4.14-.39,8.16-.23,9.62,4.6,1.14,3.78-.34,6.73-4,8.34A2,2,0,0,0,362.31,222.42Z"/><path class="cls-16" d="M149,186.55c.24,2.72,1.6,5,4.05,5.82,5.08,1.71,5.07,4.52,2.49,8.31-1.12,1.65-2.2,3.32-3.3,5a4.22,4.22,0,0,1-1.95,1.1c-3.63.13-7.3-.18-10.87.85-5,1.16-8,4.5-9.74,9.07a24.57,24.57,0,0,1-2,4.56c-3.29,8.56-3,17.67-3.69,26.55-1.17,15.24-2.38,30.48-3.52,45.72-.7,2.26-1.44,4.51-3.15,6.26-2.26.93-3.34,3.07-4.92,4.72-8.29,8.73-16.83,17.21-24.9,26.14-1,1.15-2.18,2.63-4.18,1.92L67,286.72c.08-5.13,4.35-7.76,7.09-11.1,18.3-22.35,36.87-44.48,55.35-66.68C135,202.3,140.51,195.69,146,189,146.83,188,147.51,186.83,149,186.55Z"/><path class="cls-54" d="M81,162.17c5.54-3.74,5.62-9.29,4.81-15-.24-1.66-.36-3.11,1.26-3.79s2.63.7,3.38,2a27.78,27.78,0,0,0,2.72,9.26c3,.2,5.82-1,8.7-1.69s5.26-.46,5.46,3.51c.14,2.78,2.72,5.06,1.12,8.42-.93,1.94,0,4.79-3.72,4.09-.33-.06-1.1.82-1.19,1.35-.15.81.64,1.14,1.31,1,1.35-.36,2.35-.35,2.29,1.42a2.59,2.59,0,0,1-2.31,2.79c-6.21.73-12,3.82-18.47,3.14-2.45-1.58-2-4.61-3.39-6.74C82,168.72,80.9,165.57,81,162.17Z"/><path class="cls-64" d="M84.24,171.24c1.28,2.3,1.6,4.88,2.12,7.4-2,3.54-5.58,3.3-8.74,3.2s-2.29-3.56-3.16-5.51a36.75,36.75,0,0,1-1.56-5.76c-1.34-6.7-1.21-6.86,6.71-8C82,165,81.05,169.22,84.24,171.24Z"/><path class="cls-65" d="M93.17,154.65c-.34.9-.07,2-1.66,3.08-.45-4.48-.71-8.75-3-12.54-.47-.77,1.27-.39,2,.19l1.11,2C92.93,149.64,92.56,152.25,93.17,154.65Z"/><path class="cls-66" d="M84.24,171.24c-1.95,2.93-2,.2-2.58-.88-1-1.89,0-4.7-3.71-5.44-1.68-.33,1.36-1.3,1.65-2.37l1.4-.38C84,164.5,82.52,168.44,84.24,171.24Z"/><path class="cls-27" d="M116.4,299.73c1.33-1.45,1-3.79,2.72-5,2-1,3.52.34,5.11,1.09a78.09,78.09,0,0,0,19.29,6.69c3.91.72,7.61.22,11.39-.38,3.31-.52,3.87-1.89,1.9-4.67-3.45-4.91-6.84-9.92-10.65-14.49-12-14.41-17.36-31.25-19.41-49.51-.54-4.83-1.21-9.57.49-14.29,1.33-3.28,2.19-6.72,5-9.31,2.19-2,4.31-3.46,7.31-3.32,5.89.57,7.13,5.44,9,9.72a11.74,11.74,0,0,1,.72,2.22,166.9,166.9,0,0,1,1.27,23.2,40.58,40.58,0,0,0,4,18.7c3.05,6.42,5.59,13.08,8.45,19.59,1.78,5.57,5.24,10.52,6.14,16.42-3.91,5.82-2.53,10.47,2.63,14.92,2.28,2,2.07,5.37,1.42,8.36-7.43,1.44-15,1.46-22.49,2.26-1.4.14-3.18-.18-3.51,1.87-.22,1.38-.13,2.74,1.88,2.62a6.21,6.21,0,0,1,3.55-1.66c7.63-.12,15.19-1,22.76-1.86a2.74,2.74,0,0,1,1.8.76l1.91.5c-.37,4.39,2.7,8.19,2.18,12.61-22.17,6.5-44.26,13.26-66.62,19.06a6.27,6.27,0,0,0-1.32.71c-2.37-.78-2.56-2.9-2.8-4.85-2-15.83-1.5-31.52,2.79-47C113.88,302.72,114.59,300.89,116.4,299.73Z"/><path class="cls-15" d="M116.4,299.73c-5.93,17.85-6.19,36.13-4.07,54.57a8,8,0,0,0,1,2.22c-4.57,2-9.52,2.74-14.2,4.3-5,1.68-6.59-1.14-7.86-4.79-2.73-7.81-5.34-15.65-8-23.48,10.22-9.56,19.44-20.09,29.13-30.17C113.52,301.23,114,299,116.4,299.73Z"/><path class="cls-67" d="M162.15,368.1a11.64,11.64,0,0,1-12-11.44,10.52,10.52,0,0,1,10.47-10.51c6.35-.17,12.24,5.17,12.4,11.26C173.19,363.2,168.29,368,162.15,368.1Z"/><path class="cls-16" d="M382,347.71c0,.88,0,1.75,0,2.62l-76.25-29.68a15.2,15.2,0,0,1-1.71-1c-.42-3.47.49-4.49,4.51-4.31,12.52.54,25.09.28,37.63.34,6.25-.06,12.51.15,18.74-.12,4-.18,6.17,1.48,7.44,5C375.64,329.66,379.58,338.43,382,347.71Z"/><path class="cls-67" d="M346.06,355.8c.09-6.24,5.55-11.22,12.18-11.13,6.11.1,11,4.92,10.81,10.66-.2,6-6.15,11.31-12.43,11.17S346,362,346.06,355.8Z"/><path class="cls-15" d="M349,229.66c1.24,2.56,2.08,5.39,4.7,7,1.56,1.63,3.13,3.27,2.73,5.82,4.49,7.58,8.86,15.23,13.49,22.72,3.24,5.24,7.25,5.48,12.08,1.54,1.37-1.12,2.17-5.3,5-2.31,2.47,2.57,2.31,5.19-.94,7.88-8.45,7-16.56,14.4-24.8,21.65-2.17.07-2.75-1.68-3.33-3.17-5.84-15-11.65-30.1-17.27-45.22-.36-1-.1-2-.52-2.93.67-5.07,4.18-8.88,6-13.44C347.46,226.22,348.24,228.65,349,229.66Z"/><path class="cls-68" d="M382,347.71c-3.67-3.52-3.87-8.63-5.81-12.94a121.37,121.37,0,0,1-5.47-14.35c-1-3.24-2.87-3.79-5.86-3.91-6.22-.24-12.51,1.07-18.66-.8l1.08-.11c7.49-.94,15-.15,22.53-.44,2.11-.08,4.26.42,6.32-.39-2.32-3.63-5.71-2.92-9.1-2.23-1.9-2.68-3.82-5.36-2.91-9,10.1-5.66,20.22-11.28,30.29-17,2.54-1.44,2.73-.11,2.77,1.91.16,6.85-1.45,13.46-2.62,20.13C388.73,321.11,385.23,334.36,382,347.71Z"/><path class="cls-69" d="M340.23,242.66c4.67,7.35,6.5,15.88,9.92,23.75,4,9.1,6.26,18.87,11.2,27.57l-2.2,2.6c-4.06,3.57-8.61,1.28-13,1.1-2.92-7.29-3.33-15.14-4.88-22.72-1-4.93-2.16-8.45-8.4-7.52-3.48.52-4.27-1.34-2.54-4.64C333.83,256.19,337,249.39,340.23,242.66Z"/><path class="cls-70" d="M346.17,297.68c4.19-2.05,8.74.31,13-1.1q.51,4,1,8c-2.62,4.05-6.51,5.43-11.11,5.32C346.62,306.17,346.51,301.9,346.17,297.68Z"/><path class="cls-71" d="M349.08,309.89l11.11-5.32,4-1c1,3,3,5.64,2.91,9-5.59,0-11.19.27-16.75-.78C349,311.52,348.65,311.08,349.08,309.89Z"/><path class="cls-72" d="M334.56,270.35H302.1l0-.86h32.45Z"/><path class="cls-73" d="M343.46,309.11q-3.27-18.86-6.56-37.72l1.23-.21q3.28,18.85,6.56,37.72Z"/><path class="cls-74" d="M376.17,314.77c-3,2.06-6.36.91-9.52,1-6.44.17-12.89-.09-19.33-.17.86-1.41,2.3-1.1,3.57-1.09C359.32,314.57,367.74,314.68,376.17,314.77Z"/><path class="cls-75" d="M309.59,295.43c2.73-2.95,3-6,.45-9.55C314.68,288.76,314.53,292.31,309.59,295.43Z"/><path class="cls-68" d="M168.43,296.45l-6.29-15.68c-1.84-4.92-1.15-9.58,1-14.32,3.25-7.2,6.58-14.39,8.7-22,.43-1.57.89-3.23,2.78-3.78q7.51,8.52,15,17.05c2,2.31,4.31,4.08,7.59,4a34.33,34.33,0,0,0,1.09,3.79c3.21,7.78,3,6.21-5.2,8.18a8.7,8.7,0,0,1-2,.06c-10.48.24-10.37.25-11,10.59-.23,3.92-1,7.81-1.13,11.78-.06,1.71-.17,4.14-2.81,4.64C172.46,301.39,169.75,300.2,168.43,296.45Z"/><path class="cls-76" d="M168.43,296.45c2,2.57,5.07,3,7.78,4.22,1,4.56,3.08,9.11-1.66,13.12-1.51,1.28.83,4.25-1.34,5.86-.58-4.33-1.71-8.25-5.57-11.07C161.8,304.3,165.92,300.36,168.43,296.45Z"/><path class="cls-77" d="M177.2,323.64l-28.11,2.76c-.94-2.91,1.66-2.44,2.85-2.58,7.53-.84,15.08-1.45,22.62-2.16C176.09,321.52,177.19,321.82,177.2,323.64Z"/><path class="cls-78" d="M184.32,277.72q-1.84,19.65-3.7,39.3l-1.24-.12C180.63,303.79,181.14,290.62,184.32,277.72Z"/><path class="cls-79" d="M186.7,277c10.55-2,21-3.62,31.54-2.56Z"/><path class="cls-80" d="M316.71,119.44c-7.87,1.79-15,.91-22.93,1.54C296.83,118.35,311.94,117.46,316.71,119.44Z"/><path class="cls-81" d="M294.35,112.83h21c-6.88,2.36-14,1.6-21,2C294.38,114.2,294.37,113.52,294.35,112.83Z"/><path class="cls-82" d="M315.14,107.11c-7,1.84-14,1.48-21.11.86A59.24,59.24,0,0,1,315.14,107.11Z"/><path class="cls-83" d="M293.71,102.09c7-1.91,14.13-1.66,21.28-1C308,103,300.85,102.6,293.71,102.09Z"/><path class="cls-84" d="M315.26,128.17c-3.61,6.09-8.95,7.81-14.59,4.74-2.9-1.57-5.87-3-8.78-4.58-1-.51-2.37-1-.9-2.48a37,37,0,0,1,3.41,2C301.29,132.9,308.19,135.19,315.26,128.17Z"/><path class="cls-85" d="M174.61,240.62a185.73,185.73,0,0,1-10.87,28c-1.89,4-1,8.1-1.6,12.12-4.22-9.52-9.27-18.78-12.35-28.65-1.91-6.11-.77-13.15-1.06-19.77-.22-5-.53-9.92-.81-14.88,2.81-.06,2.86,2.4,3.48,4.09a18.76,18.76,0,0,0,6.54,9.18c3.22,2.34,6.15,1.88,8.79-1,3.59-3.94,2.37-9.59,5-13.9.09-.15-.24,0-.17.31-1.72-.5-1.72-.5-2.32-2.73.48-2,1.85-3,3.56-1.87,2.95,1.89,6.15,3.8,6.09,8.05Z"/><path class="cls-86" d="M178.84,219.59c-1.25-3.49-4.27-5.32-7-7.33-1.88-1.37-1.68.29-1.72,1.42a1.05,1.05,0,0,1-1.25,0c-1.07-1.79-3.09-2.58-4.41-4.11,1.83-4.37,5.46-6.28,9.84-7.16,3.52,2.13,3.22,6.25,4.69,9.41,1.58,3.39,2.28,7.2,3.36,10.82Z"/><path class="cls-32" d="M164.43,209.54c3.06-.2,5.11.79,5,4.28A19.06,19.06,0,0,1,169,226c-1.35,3.36-3.18,6.31-7.55,6a7.35,7.35,0,0,1-5.27-3.34c-4.69-6.2-6.17-13.45-6.87-21a2.2,2.2,0,0,1,1.15-2.07l1.69.06c.25.77.44,1.57.76,2.3C156.33,215.79,158.84,216.14,164.43,209.54Z"/><path class="cls-87" d="M172,194.55c5.3-3.66-1-6.8.6-10.54,1.85,3.21,4,5.92,3.46,9.49C175.81,195.19,174.14,194.85,172,194.55Z"/><path class="cls-88" d="M248.1,197.9c7.24,4.72,6.93,11.62-.69,15.64-1.24-4.46-.85-8.94-.18-13.43Z"/><path class="cls-89" d="M247.23,200.11l.18,13.43c-1.19,4.11,2.3,7.8,1,11.92C245.22,217.14,245.23,208.67,247.23,200.11Z"/><path class="cls-90" d="M453.71,165.84c2.36-1.59,3.91-1.2,5.87-1C458,167.56,456.28,166.71,453.71,165.84Z"/><path class="cls-91" d="M436.28,158.92v10.52c-3.6-3.61.19-8.74-4.94-9.92,1.66-1.58,3.19-.9,4.62-.93Z"/><path class="cls-92" d="M356.47,242.5l-2.73-5.82c1.75.19,2.62-.48,2-2.26-.51-1.39-1.25-2.69-2.24-4.77,3.57,1.63,6.59,2.94,9.89,3.24a34.63,34.63,0,0,1-.48,6.23C362,242.38,359.6,243.26,356.47,242.5Z"/><path class="cls-93" d="M430.15,303.12c-4.44,2.18-9.13,2.83-13.94,3.08a39.19,39.19,0,0,0,13.21-.61c-5.11,2.87-20.22,4-27.27,2.52,2-1.12,4-.19,5.9-.59,1.59-.34,4.61,1.57,4.2-2.4a2.19,2.19,0,0,1,1.26-.42C419.14,305,424.6,303.58,430.15,303.12Z"/><path class="cls-94" d="M403,204.05c-1,5.86-2.82,7.11-8.66,6.21C398.16,209.9,400.84,207.9,403,204.05Z"/><path class="cls-95" d="M127.24,219.15c.76,22.46,4.46,44,19.37,62,4.43,5.38,8,11.46,12.52,16.8,3.19,3.79,1.06,4.63-2.1,5.36-9.83,2.3-19.13.22-28.12-3.7-3.35-1.46-6.53-3.29-9.79-5,1.18-21.94,2.7-43.86,5-65.72C124.51,225.55,125.2,222.11,127.24,219.15Z"/><path class="cls-85" d="M150.5,205.6c.45,6.43,1.61,12.7,4.5,18.53,1.48,3,3.11,5.84,6.62,6.87-2.17,2.91-3.78.64-5.21-.73-4.63-4.46-6.54-10.27-7.63-16.39-.22-1.22-.32-2.47-.62-3.51.07,2.12,1.8,4.52-.54,6.62-1.59-4.32-3.65-8.28-8-10.47A17.79,17.79,0,0,1,150.5,205.6Z"/><path class="cls-96" d="M99,158.49a12.64,12.64,0,0,1,6.1-1.61c.1.45.19.9.29,1.34l-6.09,1.62Z"/><path class="cls-97" d="M147.62,217c1.63-3.17-1.35-6.4.13-9.88,1.91,3.69,1.42,7.7,2.79,11.23,1.51,3.89,3.13,7.7,6,10.78,1.33,1.41,2.6,3.26,5,1.88,4.33-.24,5.63-3.42,6.74-6.86s1.07-6.85,1.11-10.32l.63-.14c3.9,4.84,1,9.59-.65,14-2.68,7.05-8.47,7.91-14.07,2.89-4-3.6-4.58-9-7.44-13.11l-.32-.14Z"/><path class="cls-98" d="M157.86,262.72a28.87,28.87,0,0,1,4.76-20.5C160.74,249,158,255.51,157.86,262.72Z"/><path class="cls-99" d="M146.79,299.16c-8.85,1.48-16.53-1-23.22-6.69a90.4,90.4,0,0,0,25.19,3.45c-4.06,1.58-8.26.74-12.56,1C139.62,299,143.4,298.16,146.79,299.16Z"/></g></g></svg>